<?xml version="1.0" encoding="UTF-8"?>
<svg version="1.1" xmlns="http://www.w3.org/2000/svg" width="512" height="512">
<path d="M0 0 C1.35571573 -0.0037418 2.71142931 -0.00834543 4.06713951 -0.01373065 C7.7730323 -0.02590962 11.47883447 -0.02570627 15.18474269 -0.02334189 C19.18885979 -0.02293246 23.19294833 -0.03398464 27.197052 -0.04345703 C35.03283615 -0.06003764 42.8685902 -0.06556516 50.70439042 -0.06668179 C57.07282748 -0.06763322 63.44125464 -0.07174824 69.80968857 -0.07808304 C87.87176993 -0.09568383 105.93382757 -0.10492319 123.99591757 -0.10342209 C124.96872443 -0.10334218 125.94153129 -0.10326227 126.94381714 -0.10317993 C128.40481108 -0.10305729 128.40481108 -0.10305729 129.89532004 -0.10293217 C145.69425047 -0.10211857 161.49308574 -0.12127794 177.29198863 -0.14945666 C193.52042223 -0.17817298 209.74880939 -0.1919978 225.97726905 -0.19026911 C235.08601332 -0.189605 244.19465768 -0.19510713 253.30337906 -0.21662521 C261.05478558 -0.23482005 268.80604684 -0.23919799 276.55746545 -0.22560637 C280.51181725 -0.21906941 284.46589021 -0.21898576 288.42021561 -0.23631287 C292.04105462 -0.25201574 295.66139304 -0.24920906 299.28221963 -0.2317446 C301.21025225 -0.22721306 303.13830023 -0.24235347 305.06627285 -0.25822389 C311.75850224 -0.20474382 316.13030864 0.14578867 321.51266479 4.26742554 C325.07805357 8.86490053 326.63583389 12.34862475 326.64409256 18.12319851 C326.6479337 19.12992279 326.65177485 20.13664706 326.65573239 21.17387813 C326.65486591 22.28300424 326.65399943 23.39213035 326.65310669 24.53486633 C326.65756337 26.29857247 326.65756337 26.29857247 326.66211009 28.09790903 C326.66929759 31.3670702 326.67196996 34.63619938 326.67270756 37.90536726 C326.67455711 41.42894733 326.68210385 44.95251599 326.68884277 48.47608948 C326.7024296 56.18254462 326.70845109 63.88899457 326.71285343 71.5954597 C326.71561474 76.40521464 326.71985183 81.21496757 326.7243576 86.02472115 C326.73654973 99.33587359 326.74684981 112.64702442 326.7502327 125.95818233 C326.75045226 126.81024276 326.75067183 127.66230319 326.75089805 128.54018364 C326.75111633 129.39430252 326.7513346 130.2484214 326.7515595 131.12842268 C326.75200297 132.8592459 326.75244953 134.59006912 326.75289917 136.32089233 C326.7531206 137.17944364 326.75334203 138.03799495 326.75357017 138.92256296 C326.75752035 152.8421256 326.77498133 166.76163595 326.79825869 180.68117838 C326.82195236 194.96465151 326.83443361 209.24809837 326.83560061 223.53159148 C326.83651839 231.55434838 326.84229654 239.57703714 326.86042023 247.59977531 C326.87579432 254.42949511 326.88095759 261.25912569 326.87268212 268.08885949 C326.86876628 271.57492683 326.86975042 275.06081435 326.88373947 278.54685974 C326.89635278 282.32239716 326.89063988 286.0974677 326.88015747 289.8730011 C326.89224208 291.53334417 326.89224208 291.53334417 326.90457082 293.22722954 C326.89798097 294.23656156 326.89139113 295.24589358 326.88460159 296.28581142 C326.88519868 297.15754197 326.88579577 298.02927251 326.88641095 298.92741913 C326.42632608 301.80798801 325.51052834 303.16524817 323.51266479 305.26742554 C322.52266479 305.59742554 321.53266479 305.92742554 320.51266479 306.26742554 C320.18266479 311.87742554 319.85266479 317.48742554 319.51266479 323.26742554 C321.16266479 323.92742554 322.81266479 324.58742554 324.51266479 325.26742554 C326.9545159 328.9302022 326.80842293 331.68026628 326.80319214 335.91659546 C326.80990936 336.69422241 326.81662659 337.47184937 326.82354736 338.27304077 C326.8425686 340.84805673 326.84645423 343.4228124 326.84860229 345.99789429 C326.85502959 347.79048266 326.8617579 349.58306997 326.86877441 351.37565613 C326.88075907 355.13753692 326.88445424 358.89932583 326.88327026 362.66122437 C326.88306752 367.46857621 326.91031834 372.27533394 326.94481468 377.08254528 C326.96712152 380.78788424 326.97110658 384.49308139 326.97005081 388.19848061 C326.97240305 389.96981151 326.98120525 391.74114655 326.99671555 393.51241112 C327.01644357 395.99911586 327.01051059 398.48455522 326.99850464 400.97128296 C327.00974365 401.69521744 327.02098267 402.41915192 327.03256226 403.1650238 C326.95309597 409.68421652 324.75465847 414.90087666 320.26266479 419.64242554 C317.51266479 421.26742554 317.51266479 421.26742554 309.51266479 423.26742554 C309.18266479 436.13742554 308.85266479 449.00742554 308.51266479 462.26742554 C310.49266479 462.26742554 312.47266479 462.26742554 314.51266479 462.26742554 C316.70797729 463.07992554 316.70797729 463.07992554 318.63766479 464.26742554 C319.27961792 464.63867554 319.92157104 465.00992554 320.58297729 465.39242554 C325.1479731 469.828049 326.72375001 474.7335482 327.04391479 481.01742554 C327.05443668 483.10075834 327.04360236 485.18429588 327.01266479 487.26742554 C327.02813354 488.30898804 327.04360229 489.35055054 327.05953979 490.42367554 C327.02700101 496.86635545 326.28952208 501.92721405 322.51266479 507.26742554 C318.17492585 511.39356746 314.9378396 512.39143629 309.0545435 512.3988533 C307.91341699 512.40269445 306.77229048 512.40653559 305.59658438 512.41049314 C304.3372773 512.40962665 303.07797022 512.40876017 301.78050232 512.40786743 C300.43353008 512.41045057 299.08655861 512.41346359 297.7395882 512.41687083 C294.02981356 512.42495068 290.32005826 512.42673096 286.61027586 512.4274683 C282.61210143 512.42931725 278.61393706 512.43686398 274.61576843 512.44360352 C265.86748685 512.4571963 257.11920985 512.46321357 248.37091947 512.46761417 C242.90714435 512.47037608 237.44337101 512.47461345 231.97959709 512.47911835 C216.84984861 512.4913143 201.72010154 512.50161163 186.59034824 512.50499344 C185.62159586 512.505213 184.65284348 512.50543257 183.65473497 512.50565879 C182.68366184 512.50587707 181.71258871 512.50609535 180.71208912 512.50632024 C178.74432854 512.5067637 176.77656796 512.50721027 174.80880737 512.50765991 C173.34469125 512.50799206 173.34469125 512.50799206 171.85099702 512.50833091 C156.048616 512.51227565 140.24628118 512.5297183 124.443918 512.55301943 C108.21678517 512.57675345 91.98967549 512.58919629 75.76252502 512.59036136 C66.65298857 512.59127718 57.54351225 512.59700586 48.43399239 512.61518097 C40.67345624 512.63060992 32.91299879 512.63568612 25.15245021 512.62744287 C21.19553776 512.62354568 17.23878366 512.62442004 13.28189087 512.63850021 C9.65261112 512.6512959 6.02360778 512.64999239 2.39432811 512.6379095 C0.47368622 512.63504642 -1.4469607 512.64684546 -3.36756414 512.65933156 C-21.60114601 512.55615721 -37.04731129 505.89122062 -49.89749146 493.05648804 C-63.15253488 478.78182589 -67.96840821 462.01875117 -67.88174438 442.81710815 C-67.88783549 441.52729302 -67.89392659 440.23747788 -67.90020227 438.90857744 C-67.91644893 435.36744099 -67.91431562 431.82652938 -67.9088273 428.28536892 C-67.90613835 424.45176468 -67.92072281 420.61821789 -67.93292236 416.78463745 C-67.95389327 409.29229619 -67.9585223 401.80003245 -67.95673448 394.30766529 C-67.9554238 388.21962194 -67.95924652 382.13160266 -67.96665955 376.04356384 C-67.96875881 374.28613552 -67.97085642 372.52870719 -67.97295237 370.77127886 C-67.97399589 369.89646555 -67.97503942 369.02165224 -67.97611457 368.12032944 C-67.99497978 351.60911818 -67.99397682 335.09795144 -67.98714525 318.58673388 C-67.98155997 303.47859632 -68.00244364 288.37062782 -68.03550571 273.26252979 C-68.06921763 257.73683912 -68.08441502 242.21122954 -68.07978868 226.68550158 C-68.07754309 217.97368747 -68.08280188 209.26203001 -68.10768127 200.55024719 C-68.12866092 193.14140263 -68.13231866 185.73280084 -68.11338168 178.32394642 C-68.10420702 174.54392658 -68.10313362 170.76435987 -68.12373734 166.984375 C-68.1458096 162.88985261 -68.12927469 158.79640404 -68.10879517 154.70187378 C-68.12131301 153.50354778 -68.13383086 152.30522178 -68.14672804 151.07058287 C-68.05043342 142.13290155 -68.05043342 142.13290155 -65.07349396 138.99027252 C-62.48733521 137.26742554 -62.48733521 137.26742554 -60.48733521 137.26742554 C-60.48733521 131.65742554 -60.48733521 126.04742554 -60.48733521 120.26742554 C-62.13733521 119.60742554 -63.78733521 118.94742554 -65.48733521 118.26742554 C-67.73703787 114.89287155 -67.74751031 113.71905107 -67.77786255 109.76473999 C-67.79062225 108.63538528 -67.80338196 107.50603058 -67.81652832 106.342453 C-67.81875397 105.11757675 -67.82097961 103.8927005 -67.82327271 102.63070679 C-67.8299295 101.36333176 -67.8365863 100.09595673 -67.84344482 98.79017639 C-67.853588 96.09747364 -67.85912515 93.40517401 -67.85794067 90.7124939 C-67.85777945 87.98044981 -67.87144285 85.24908564 -67.8989563 82.5171814 C-68.13758884 58.47734493 -67.1041184 37.74211558 -49.74246216 19.37728882 C-35.75108993 5.2410882 -19.41895382 -0.04829947 0 0 Z " fill="#FDCCE9" transform="translate(126.48733520507813,-0.267425537109375)"/>
<path d="M0 0 C1.35571573 -0.0037418 2.71142931 -0.00834543 4.06713951 -0.01373065 C7.7730323 -0.02590962 11.47883447 -0.02570627 15.18474269 -0.02334189 C19.18885979 -0.02293246 23.19294833 -0.03398464 27.197052 -0.04345703 C35.03283615 -0.06003764 42.8685902 -0.06556516 50.70439042 -0.06668179 C57.07282748 -0.06763322 63.44125464 -0.07174824 69.80968857 -0.07808304 C87.87176993 -0.09568383 105.93382757 -0.10492319 123.99591757 -0.10342209 C124.96872443 -0.10334218 125.94153129 -0.10326227 126.94381714 -0.10317993 C128.40481108 -0.10305729 128.40481108 -0.10305729 129.89532004 -0.10293217 C145.69425047 -0.10211857 161.49308574 -0.12127794 177.29198863 -0.14945666 C193.52042223 -0.17817298 209.74880939 -0.1919978 225.97726905 -0.19026911 C235.08601332 -0.189605 244.19465768 -0.19510713 253.30337906 -0.21662521 C261.05478558 -0.23482005 268.80604684 -0.23919799 276.55746545 -0.22560637 C280.51181725 -0.21906941 284.46589021 -0.21898576 288.42021561 -0.23631287 C292.04105462 -0.25201574 295.66139304 -0.24920906 299.28221963 -0.2317446 C301.21025225 -0.22721306 303.13830023 -0.24235347 305.06627285 -0.25822389 C311.75850224 -0.20474382 316.13030864 0.14578867 321.51266479 4.26742554 C325.07805357 8.86490053 326.63583389 12.34862475 326.64409256 18.12319851 C326.6479337 19.12992279 326.65177485 20.13664706 326.65573239 21.17387813 C326.65486591 22.28300424 326.65399943 23.39213035 326.65310669 24.53486633 C326.65756337 26.29857247 326.65756337 26.29857247 326.66211009 28.09790903 C326.66929759 31.3670702 326.67196996 34.63619938 326.67270756 37.90536726 C326.67455711 41.42894733 326.68210385 44.95251599 326.68884277 48.47608948 C326.7024296 56.18254462 326.70845109 63.88899457 326.71285343 71.5954597 C326.71561474 76.40521464 326.71985183 81.21496757 326.7243576 86.02472115 C326.73654973 99.33587359 326.74684981 112.64702442 326.7502327 125.95818233 C326.75045226 126.81024276 326.75067183 127.66230319 326.75089805 128.54018364 C326.75111633 129.39430252 326.7513346 130.2484214 326.7515595 131.12842268 C326.75200297 132.8592459 326.75244953 134.59006912 326.75289917 136.32089233 C326.7531206 137.17944364 326.75334203 138.03799495 326.75357017 138.92256296 C326.75752035 152.8421256 326.77498133 166.76163595 326.79825869 180.68117838 C326.82195236 194.96465151 326.83443361 209.24809837 326.83560061 223.53159148 C326.83651839 231.55434838 326.84229654 239.57703714 326.86042023 247.59977531 C326.87579432 254.42949511 326.88095759 261.25912569 326.87268212 268.08885949 C326.86876628 271.57492683 326.86975042 275.06081435 326.88373947 278.54685974 C326.89635278 282.32239716 326.89063988 286.0974677 326.88015747 289.8730011 C326.89224208 291.53334417 326.89224208 291.53334417 326.90457082 293.22722954 C326.89798097 294.23656156 326.89139113 295.24589358 326.88460159 296.28581142 C326.88519868 297.15754197 326.88579577 298.02927251 326.88641095 298.92741913 C326.42632608 301.80798801 325.51052834 303.16524817 323.51266479 305.26742554 C322.52266479 305.59742554 321.53266479 305.92742554 320.51266479 306.26742554 C320.18266479 311.87742554 319.85266479 317.48742554 319.51266479 323.26742554 C321.16266479 323.92742554 322.81266479 324.58742554 324.51266479 325.26742554 C326.9545159 328.9302022 326.80842293 331.68026628 326.80319214 335.91659546 C326.80990936 336.69422241 326.81662659 337.47184937 326.82354736 338.27304077 C326.8425686 340.84805673 326.84645423 343.4228124 326.84860229 345.99789429 C326.85502959 347.79048266 326.8617579 349.58306997 326.86877441 351.37565613 C326.88075907 355.13753692 326.88445424 358.89932583 326.88327026 362.66122437 C326.88306752 367.46857621 326.91031834 372.27533394 326.94481468 377.08254528 C326.96712152 380.78788424 326.97110658 384.49308139 326.97005081 388.19848061 C326.97240305 389.96981151 326.98120525 391.74114655 326.99671555 393.51241112 C327.01644357 395.99911586 327.01051059 398.48455522 326.99850464 400.97128296 C327.00974365 401.69521744 327.02098267 402.41915192 327.03256226 403.1650238 C326.95309597 409.68421652 324.75465847 414.90087666 320.26266479 419.64242554 C317.51266479 421.26742554 317.51266479 421.26742554 309.51266479 423.26742554 C309.18266479 436.13742554 308.85266479 449.00742554 308.51266479 462.26742554 C310.49266479 462.26742554 312.47266479 462.26742554 314.51266479 462.26742554 C316.70797729 463.07992554 316.70797729 463.07992554 318.63766479 464.26742554 C319.27961792 464.63867554 319.92157104 465.00992554 320.58297729 465.39242554 C325.1479731 469.828049 326.72375001 474.7335482 327.04391479 481.01742554 C327.05443668 483.10075834 327.04360236 485.18429588 327.01266479 487.26742554 C327.02813354 488.30898804 327.04360229 489.35055054 327.05953979 490.42367554 C327.02700101 496.86635545 326.28952208 501.92721405 322.51266479 507.26742554 C318.17492585 511.39356746 314.9378396 512.39143629 309.0545435 512.3988533 C307.91341699 512.40269445 306.77229048 512.40653559 305.59658438 512.41049314 C304.3372773 512.40962665 303.07797022 512.40876017 301.78050232 512.40786743 C300.43353008 512.41045057 299.08655861 512.41346359 297.7395882 512.41687083 C294.02981356 512.42495068 290.32005826 512.42673096 286.61027586 512.4274683 C282.61210143 512.42931725 278.61393706 512.43686398 274.61576843 512.44360352 C265.86748685 512.4571963 257.11920985 512.46321357 248.37091947 512.46761417 C242.90714435 512.47037608 237.44337101 512.47461345 231.97959709 512.47911835 C216.84984861 512.4913143 201.72010154 512.50161163 186.59034824 512.50499344 C185.62159586 512.505213 184.65284348 512.50543257 183.65473497 512.50565879 C182.68366184 512.50587707 181.71258871 512.50609535 180.71208912 512.50632024 C178.74432854 512.5067637 176.77656796 512.50721027 174.80880737 512.50765991 C173.34469125 512.50799206 173.34469125 512.50799206 171.85099702 512.50833091 C156.048616 512.51227565 140.24628118 512.5297183 124.443918 512.55301943 C108.21678517 512.57675345 91.98967549 512.58919629 75.76252502 512.59036136 C66.65298857 512.59127718 57.54351225 512.59700586 48.43399239 512.61518097 C40.67345624 512.63060992 32.91299879 512.63568612 25.15245021 512.62744287 C21.19553776 512.62354568 17.23878366 512.62442004 13.28189087 512.63850021 C9.65261112 512.6512959 6.02360778 512.64999239 2.39432811 512.6379095 C0.47368622 512.63504642 -1.4469607 512.64684546 -3.36756414 512.65933156 C-21.60114601 512.55615721 -37.04731129 505.89122062 -49.89749146 493.05648804 C-63.15253488 478.78182589 -67.96840821 462.01875117 -67.88174438 442.81710815 C-67.88783549 441.52729302 -67.89392659 440.23747788 -67.90020227 438.90857744 C-67.91644893 435.36744099 -67.91431562 431.82652938 -67.9088273 428.28536892 C-67.90613835 424.45176468 -67.92072281 420.61821789 -67.93292236 416.78463745 C-67.95389327 409.29229619 -67.9585223 401.80003245 -67.95673448 394.30766529 C-67.9554238 388.21962194 -67.95924652 382.13160266 -67.96665955 376.04356384 C-67.96875881 374.28613552 -67.97085642 372.52870719 -67.97295237 370.77127886 C-67.97399589 369.89646555 -67.97503942 369.02165224 -67.97611457 368.12032944 C-67.99497978 351.60911818 -67.99397682 335.09795144 -67.98714525 318.58673388 C-67.98155997 303.47859632 -68.00244364 288.37062782 -68.03550571 273.26252979 C-68.06921763 257.73683912 -68.08441502 242.21122954 -68.07978868 226.68550158 C-68.07754309 217.97368747 -68.08280188 209.26203001 -68.10768127 200.55024719 C-68.12866092 193.14140263 -68.13231866 185.73280084 -68.11338168 178.32394642 C-68.10420702 174.54392658 -68.10313362 170.76435987 -68.12373734 166.984375 C-68.1458096 162.88985261 -68.12927469 158.79640404 -68.10879517 154.70187378 C-68.12131301 153.50354778 -68.13383086 152.30522178 -68.14672804 151.07058287 C-68.05043342 142.13290155 -68.05043342 142.13290155 -65.07349396 138.99027252 C-62.48733521 137.26742554 -62.48733521 137.26742554 -60.48733521 137.26742554 C-60.48733521 131.65742554 -60.48733521 126.04742554 -60.48733521 120.26742554 C-62.13733521 119.60742554 -63.78733521 118.94742554 -65.48733521 118.26742554 C-67.73703787 114.89287155 -67.74751031 113.71905107 -67.77786255 109.76473999 C-67.79062225 108.63538528 -67.80338196 107.50603058 -67.81652832 106.342453 C-67.81875397 105.11757675 -67.82097961 103.8927005 -67.82327271 102.63070679 C-67.8299295 101.36333176 -67.8365863 100.09595673 -67.84344482 98.79017639 C-67.853588 96.09747364 -67.85912515 93.40517401 -67.85794067 90.7124939 C-67.85777945 87.98044981 -67.87144285 85.24908564 -67.8989563 82.5171814 C-68.13758884 58.47734493 -67.1041184 37.74211558 -49.74246216 19.37728882 C-35.75108993 5.2410882 -19.41895382 -0.04829947 0 0 Z M5.51266479 15.26742554 C5.51266479 133.07742554 5.51266479 250.88742554 5.51266479 372.26742554 C53.69266479 372.59742554 101.87266479 372.92742554 151.51266479 373.26742554 C155.51266479 376.26742554 155.51266479 376.26742554 155.90328979 378.52914429 C155.85688354 379.3296521 155.81047729 380.13015991 155.76266479 380.95492554 C155.72657104 381.76316772 155.69047729 382.57140991 155.65328979 383.40414429 C155.60688354 384.0190271 155.56047729 384.63390991 155.51266479 385.26742554 C152.16416391 386.3835925 149.64993227 386.3977386 146.12046814 386.40545654 C145.46891972 386.40827782 144.81737131 386.4110991 144.146079 386.41400588 C141.95844782 386.42235182 139.77086725 386.42369016 137.58322144 386.42514038 C136.01606097 386.42980889 134.44890186 386.43495251 132.88174438 386.4405365 C129.50306894 386.45182111 126.12440235 386.46025381 122.74571419 386.46665573 C117.39475861 386.47734325 112.04386612 386.49759282 106.69294739 386.51977539 C91.47524933 386.5816656 76.25755413 386.63562057 61.0397644 386.66879272 C52.63778938 386.68718798 44.23591931 386.71618964 35.83402151 386.75679743 C31.39141221 386.77779407 26.94893479 386.79331415 22.50627327 386.79560471 C18.31929936 386.79776579 14.13259948 386.81378263 9.94570923 386.83999443 C8.41722059 386.84713498 6.88869855 386.84931417 5.36019707 386.84589195 C-11.58099398 386.81404881 -25.79286382 390.12703296 -38.42092896 402.00961304 C-51.34869306 416.13484489 -53.25081521 432.20069683 -52.66213989 450.46420288 C-51.86865211 463.18882125 -45.83819611 476.06589857 -36.44046021 484.74398804 C-32.69488817 487.66553423 -28.64791225 489.99297675 -24.48733521 492.26742554 C-23.47671021 492.84492554 -22.46608521 493.42242554 -21.42483521 494.01742554 C-13.24128637 497.49978674 -5.04656003 497.55174862 3.73666382 497.5146637 C5.70724534 497.51828532 5.70724534 497.51828532 7.71763659 497.52198011 C11.34391541 497.52836203 14.97008169 497.52235018 18.59635305 497.51421583 C22.51445451 497.50761445 26.43254389 497.51259246 30.35064697 497.51609802 C38.01598496 497.52112963 45.68127967 497.51551234 53.34661227 497.50624772 C62.26969442 497.49585107 71.19276726 497.49593421 80.11585432 497.4964203 C96.02905809 497.49692047 111.94224173 497.48776965 127.85543823 497.47323608 C143.30791592 497.45913056 158.7603759 497.45206615 174.21286011 497.45272827 C175.16576878 497.45276823 176.11867745 497.45280818 177.10046214 497.45284935 C178.5273256 497.45290988 178.5273256 497.45290988 179.98301458 497.45297164 C197.56930301 497.45366056 215.15558391 497.44777917 232.7418699 497.43881842 C238.9676891 497.43579734 245.19350693 497.43473833 251.41932678 497.43428612 C258.99592902 497.43360561 266.57251855 497.42916332 274.14911538 497.41995331 C278.01756529 497.41532198 281.88599888 497.41229474 285.75445175 497.41354752 C289.93783111 497.41483667 294.12116171 497.40842187 298.30453491 497.40113831 C299.54058645 497.40268691 300.77663798 497.40423551 302.05014563 497.40583104 C303.16127297 497.40260659 304.27240031 497.39938215 305.41719818 497.39605999 C306.86743669 497.39500335 306.86743669 497.39500335 308.34697294 497.39392537 C310.49230173 497.50934566 310.49230173 497.50934566 311.51266479 496.26742554 C311.59898354 494.92475141 311.61972953 493.57768232 311.61032104 492.23226929 C311.60548706 491.01893921 311.60548706 491.01893921 311.60055542 489.78109741 C311.59217651 488.93096069 311.58379761 488.08082397 311.57516479 487.20492554 C311.56839722 485.92391968 311.56839722 485.92391968 311.56149292 484.61703491 C311.54966853 482.5004689 311.53173248 480.38393869 311.51266479 478.26742554 C308.95970495 476.99094562 307.17763351 477.14375301 304.31814766 477.14552021 C303.21036276 477.14374596 302.10257786 477.14197171 300.96122372 477.14014369 C299.73402233 477.1432583 298.50682095 477.14637292 297.24243164 477.14958191 C295.94653638 477.14887733 294.65064111 477.14817274 293.3154763 477.14744681 C290.46130723 477.1459206 287.60716304 477.14757127 284.75299644 477.15159416 C280.10929869 477.15810553 275.46561594 477.1577867 270.82191467 477.15652466 C264.95344785 477.15540317 259.08498573 477.15605087 253.2165194 477.15872546 C241.67653524 477.16384793 230.13659481 477.15550558 218.59661865 477.1421051 C216.7804089 477.14005836 214.96419915 477.13801602 213.14798939 477.13597804 C209.47023895 477.13182166 205.79248858 477.12760645 202.11473823 477.12337053 C192.65298041 477.11256242 183.19122191 477.10276103 173.72946167 477.09432983 C172.30487059 477.09305296 172.30487059 477.09305296 170.8514999 477.09175029 C155.47908315 477.07854492 140.10671835 477.0835388 124.73430218 477.0944014 C108.95011478 477.10504118 93.16605653 477.09281842 77.38189876 477.06031913 C67.64831889 477.04106166 57.91508429 477.04000852 48.18150978 477.06247541 C41.50340846 477.07624869 34.82555823 477.0680365 28.14749153 477.04275081 C24.297765 477.02884034 20.44867307 477.02451573 16.59897041 477.04657555 C12.41638175 477.07029861 8.23530221 477.0473097 4.05273438 477.02018738 C2.84784021 477.0344556 1.64294604 477.04872382 0.40153992 477.06342441 C-8.79807277 476.94323897 -17.07269967 474.65389731 -23.76061618 468.00864726 C-30.42736816 460.12346093 -32.00047233 452.37591031 -31.92483521 442.32992554 C-31.95480591 440.92323608 -31.95480591 440.92323608 -31.98538208 439.48812866 C-31.97904159 430.36416025 -28.82549763 421.97350241 -22.48733521 415.26742554 C-16.55662117 410.63827607 -10.36344018 408.02215095 -2.76990032 408.00850582 C-1.64736754 408.00165703 -0.52483476 407.99480823 0.63171417 407.9877519 C1.8547675 407.99036876 3.07782084 407.99298561 4.3379364 407.99568176 C5.64501059 407.99059493 6.95208477 407.98550809 8.29876727 407.98026711 C11.92040309 407.96642124 15.54195483 407.96491031 19.1636132 407.96541035 C23.07155769 407.9637718 26.9794654 407.95064312 30.88739014 407.93887329 C37.65625177 407.9200147 44.42509538 407.90829961 51.19397926 407.90133476 C60.98172213 407.89116623 70.76941042 407.86910482 80.55712494 407.84394885 C96.43869643 407.80336094 112.32027315 407.77089345 128.20187378 407.74423218 C129.15222457 407.74263488 130.10257536 407.74103758 131.08172467 407.73939187 C132.03329958 407.73779297 132.98487449 407.73619407 133.965285 407.73454672 C147.46863147 407.71183983 160.9719726 407.6872085 174.47531128 407.6602478 C175.42602112 407.65835166 176.37673097 407.65645551 177.3562502 407.65450191 C193.18453667 407.62276974 209.0128126 407.58702588 224.84108561 407.54920632 C234.61015851 407.52612483 244.37922418 407.50718565 254.14831492 407.49353958 C260.83368637 407.48404013 267.51904574 407.47121516 274.204406 407.45573073 C278.06675667 407.44693188 281.92909231 407.43984932 285.79145241 407.43708992 C289.96842827 407.43408801 294.14534988 407.42352392 298.3223114 407.41218567 C299.55651835 407.4125718 300.79072529 407.41295793 302.06233245 407.41335577 C303.1718265 407.40911472 304.28132054 407.40487368 305.42443562 407.40050411 C306.38984974 407.39893022 307.35526387 407.39735632 308.34993297 407.39573473 C310.49262479 407.50879504 310.49262479 407.50879504 311.51266479 406.26742554 C311.63929571 403.44326171 311.69787028 400.6544776 311.70016479 397.82992554 C311.71241089 397.04037476 311.72465698 396.25082397 311.73727417 395.43734741 C311.74253759 393.37935119 311.63472765 391.32180544 311.51266479 389.26742554 C308.93434797 386.68910871 307.94192449 387.01528823 304.35704041 387.00914001 C302.71865959 386.99889801 302.71865959 386.99889801 301.04718018 386.9884491 C299.84348785 386.99100204 298.63979553 386.99355499 297.39962769 386.9961853 C295.4602599 386.98816228 293.52089212 386.98013684 291.58152473 386.97202003 C289.49348229 386.96515574 287.40548363 386.96316421 285.3174305 386.96246529 C280.96873562 386.96052806 276.62020084 386.94249428 272.27156067 386.92170715 C261.46946602 386.87247057 250.6673278 386.84162126 239.86514282 386.82040405 C231.47264366 386.80389413 223.08028125 386.78111504 214.68787378 386.73738331 C210.36335106 386.71556847 206.03908787 386.70755264 201.7145139 386.70977604 C198.3946335 386.70772131 195.07492596 386.68637321 191.75509644 386.6680603 C189.9525943 386.67492607 189.9525943 386.67492607 188.11367798 386.68193054 C187.01860428 386.67228271 185.92353058 386.66263489 184.79527283 386.6526947 C183.84197114 386.65068337 182.88866945 386.64867205 181.90647984 386.64659977 C179.51266479 386.26742554 179.51266479 386.26742554 177.70593929 384.96209621 C175.70872808 382.12568658 176.15473578 379.60809631 176.51266479 376.26742554 C178.08751816 374.11579806 178.98203302 373.36783714 181.61976624 372.86869812 C182.43028946 372.85759506 183.24081268 372.846492 184.07589722 372.83505249 C184.99662521 372.81525833 185.91735321 372.79546417 186.86598206 372.77507019 C187.85669205 372.76868027 188.84740204 372.76229034 189.86813354 372.75570679 C191.39329338 372.72877998 191.39329338 372.72877998 192.94926453 372.7013092 C196.19952232 372.64709013 199.4496323 372.61327294 202.70016479 372.57992554 C204.90265938 372.54676275 207.10513442 372.51227407 209.30758667 372.47640991 C214.70914683 372.39135721 220.11072586 372.32305655 225.51266479 372.26742554 C225.51631042 371.36921585 225.51995605 370.47100616 225.52371216 369.545578 C225.56177613 361.02876406 225.61883523 352.51232591 225.69656754 343.99577808 C225.73586663 339.61862122 225.76814033 335.24166025 225.78366089 330.86434937 C225.79894443 326.63007194 225.83359303 322.39633372 225.88097382 318.1622982 C225.89566823 316.55705168 225.90369885 314.95172812 225.90454865 313.34641457 C225.9213708 297.48425903 228.79978634 283.97737636 239.73141479 271.79476929 C247.20328766 264.52910071 257.59897781 258.25796572 268.25949097 258.06210327 C269.22026047 258.04215805 270.18102997 258.02221283 271.1709137 258.00166321 C272.72260002 257.97659447 272.72260002 257.97659447 274.30563354 257.95101929 C275.36679886 257.93023819 276.42796417 257.90945709 277.52128601 257.88804626 C280.91417917 257.82261316 284.3071503 257.76369461 287.70016479 257.70492554 C289.99900101 257.6617344 292.29782932 257.61811992 294.59664917 257.57406616 C300.2352384 257.46693813 305.87390535 257.36516002 311.51266479 257.26742554 C311.53545469 226.5824731 311.55316273 195.8975226 311.56373012 165.21256373 C311.5649809 161.59372533 311.56627522 157.97488695 311.56759644 154.35604858 C311.56785875 153.63557273 311.56812106 152.91509688 311.56839132 152.17278843 C311.57274811 140.49168135 311.58063571 128.81057917 311.58981759 117.129475 C311.59915387 105.15246905 311.60472035 93.17546567 311.60675329 81.19845623 C311.60800486 74.46742385 311.61102661 67.73640171 311.61839485 61.005373 C311.62515084 54.67800486 311.62728262 48.3506525 311.62577248 42.0232811 C311.626049 39.69355496 311.6280566 37.36382833 311.63187027 35.0341053 C311.63680094 31.86837442 311.63566541 28.70270415 311.63291931 25.53697205 C311.63583215 24.60216635 311.63874499 23.66736065 311.6417461 22.70422751 C312.04225059 18.66542834 312.04225059 18.66542834 310.51266479 15.26742554 C308.88626365 15.17030561 307.2556171 15.14370969 305.62631893 15.14437771 C304.56155645 15.14238684 303.49679398 15.14039597 302.39976597 15.13834476 C301.21627536 15.14125743 300.03278475 15.14417009 298.81343079 15.14717102 C297.5701149 15.146315 296.32679901 15.14545898 295.04580688 15.14457703 C291.57200696 15.14320363 288.09826259 15.14636331 284.62446932 15.15135281 C280.82946789 15.15570077 277.034468 15.15425944 273.23946476 15.15353489 C265.86332589 15.1530019 258.48719914 15.1576321 251.11106339 15.16403622 C242.58416271 15.17121873 234.05726937 15.17203001 225.53036499 15.17282104 C203.00362966 15.17807756 180.47689705 15.19203859 157.95016479 15.20492554 C82.49360229 15.23586304 82.49360229 15.23586304 5.51266479 15.26742554 Z " fill="#010101" transform="translate(126.48733520507813,-0.267425537109375)"/>
<path d="M0 0 C0.33 0 0.66 0 1 0 C1.433125 1.7015625 1.433125 1.7015625 1.875 3.4375 C2.24625 4.613125 2.6175 5.78875 3 7 C5.54010633 8.27005316 7.31778302 8.13326851 10.16235352 8.14476013 C11.25605255 8.15165863 12.34975159 8.15855713 13.47659302 8.16566467 C14.68185638 8.16827805 15.88711975 8.17089142 17.12890625 8.17358398 C19.07071447 8.18384837 21.01252267 8.19411492 22.95433044 8.20446312 C25.04481682 8.21470212 27.13530078 8.22254917 29.22579956 8.22979546 C33.57838951 8.24522636 37.93090629 8.2691741 42.28344727 8.29469299 C54.66124863 8.36595705 67.03909157 8.42574115 79.41699219 8.47680664 C86.25100453 8.50507593 93.08494376 8.5404364 99.91887951 8.58346039 C104.2486339 8.6102871 108.57830556 8.62815853 112.90812683 8.63949764 C116.22917315 8.65073702 119.55010273 8.67486656 122.87109375 8.69702148 C124.07635712 8.69761063 125.28162048 8.69819977 126.52340698 8.69880676 C128.16395554 8.71338425 128.16395554 8.71338425 129.83764648 8.72825623 C131.2689817 8.73460413 131.2689817 8.73460413 132.72923279 8.74108028 C135 9 135 9 137 11 C137.17179052 13.89132177 137.2322947 16.67442065 137.1875 19.5625 C137.18685547 20.35591797 137.18621094 21.14933594 137.18554688 21.96679688 C137.14025522 27.85974478 137.14025522 27.85974478 136 29 C134.30906049 29.09867719 132.61396683 29.12663123 130.92015076 29.12749195 C129.81250681 29.1304996 128.70486286 29.13350725 127.56365395 29.13660604 C126.33149336 29.13485567 125.09933277 29.13310529 123.82983398 29.13130188 C121.88409768 29.13447545 121.88409768 29.13447545 119.89905357 29.13771313 C117.03908378 29.14232508 114.17913567 29.1437281 111.31916237 29.14274788 C106.66643543 29.14116021 102.01373013 29.14634634 97.36100769 29.15237427 C90.6046245 29.16050056 83.84824509 29.16543577 77.09185791 29.16866493 C66.41132004 29.17415449 55.73081424 29.19104576 45.05029297 29.21000671 C41.39813238 29.21636413 37.7459717 29.22267251 34.09381104 29.22898388 C32.72454436 29.23135952 32.72454436 29.23135952 31.32761574 29.23378316 C20.92755994 29.25173353 10.52750186 29.26795212 0.12744141 29.28295898 C-0.82363841 29.28433486 -1.77471823 29.28571073 -2.75461864 29.28712829 C-18.15497272 29.30904158 -33.55531859 29.31980981 -48.9556855 29.32732973 C-64.76128095 29.33540331 -80.56680595 29.35870385 -96.37236118 29.3952834 C-106.12346486 29.41730465 -115.87442364 29.42697418 -125.62555093 29.42078307 C-132.31247596 29.41760627 -138.99927741 29.42895314 -145.6861642 29.45167748 C-149.54348192 29.46433476 -153.40052426 29.4705281 -157.25785255 29.45926094 C-161.443469 29.44719227 -165.62838751 29.4660283 -169.81396484 29.48774719 C-171.02827966 29.47930466 -172.24259447 29.47086212 -173.4937067 29.46216375 C-183.23647661 29.55567045 -191.78369583 32.17960279 -199 39 C-205.05292975 46.75481451 -206.36203599 54.17376142 -206.375 63.8125 C-206.39949219 64.75931641 -206.42398438 65.70613281 -206.44921875 66.68164062 C-206.47664378 73.32306992 -205.23017004 78.20423353 -202 84 C-201.61569824 84.69609375 -201.23139648 85.3921875 -200.83544922 86.109375 C-196.74666245 92.4720355 -190.97387818 95.41801053 -184 98 C-179.46384825 98.78162172 -175.05498472 98.80717595 -170.45993042 98.75276184 C-168.49268767 98.76551864 -168.49268767 98.76551864 -166.48570263 98.77853316 C-162.87924038 98.80114618 -159.27375538 98.78694352 -155.66731691 98.76627767 C-151.76555815 98.75054535 -147.86394491 98.76965036 -143.96220398 98.78442383 C-137.21300109 98.80531924 -130.46408387 98.80458943 -123.71487045 98.789011 C-113.95468762 98.76660219 -104.19477516 98.77834892 -94.4345981 98.79844495 C-78.59406764 98.83023314 -62.75364039 98.83614457 -46.91308594 98.82495117 C-31.53643843 98.81415474 -16.15984944 98.81312205 -0.78320312 98.8269043 C0.16536498 98.82774955 1.11393308 98.8285948 2.09124567 98.82946566 C11.51967339 98.83806738 20.94809918 98.84828115 30.37652455 98.85914052 C34.03967297 98.86335939 37.70282148 98.86750614 41.36597003 98.87161658 C43.17302175 98.87365301 44.98007344 98.87572016 46.7871251 98.87781855 C58.29449819 98.89099687 69.80182975 98.89535708 81.30920911 98.89011252 C87.1045796 98.88754426 92.89994828 98.88817255 98.69531901 98.8897476 C103.28528102 98.89072867 107.87521394 98.88750222 112.46517117 98.88103275 C115.88670636 98.87747169 119.30823041 98.88029607 122.72976685 98.88215637 C123.95696823 98.87904176 125.18416962 98.87592715 126.44855893 98.87271816 C128.11023628 98.87537953 128.11023628 98.87537953 129.80548286 98.87809467 C130.76726483 98.87750028 131.7290468 98.87690589 132.71997368 98.87629348 C135 99 135 99 137 100 C137.02683987 102.97922593 137.04676037 105.95821295 137.0625 108.9375 C137.07087891 109.78763672 137.07925781 110.63777344 137.08789062 111.51367188 C137.09272461 112.72700195 137.09272461 112.72700195 137.09765625 113.96484375 C137.10551147 115.08814087 137.10551147 115.08814087 137.11352539 116.23413086 C137 118 137 118 136 119 C134.30575458 119.09996867 132.60731077 119.12923717 130.91012001 119.13142776 C129.24527909 119.13718948 129.24527909 119.13718948 127.54680502 119.1430676 C126.31211773 119.14220112 125.07743043 119.14133463 123.80532837 119.14044189 C121.85558343 119.14489858 121.85558343 119.14489858 119.86644971 119.1494453 C116.24143827 119.15754449 112.6164466 119.15930649 108.99142718 119.16004276 C105.08798865 119.16188841 101.1845605 119.16943354 97.28112793 119.17617798 C88.73526798 119.18978538 80.1894127 119.19579055 71.64354372 119.20018864 C66.30742957 119.20294858 60.97131724 119.20718563 55.63520432 119.21169281 C40.86325252 119.22389161 26.0913022 119.23418777 11.31934547 119.2375679 C10.37301218 119.23778747 9.42667888 119.23800703 8.45166882 119.23823325 C7.50304362 119.23845153 6.55441841 119.23866981 5.57704699 119.2388947 C3.65471752 119.23933817 1.73238806 119.23978473 -0.18994141 119.24023438 C-1.62026012 119.24056652 -1.62026012 119.24056652 -3.07947417 119.24090537 C-18.51406642 119.24484935 -33.94861133 119.26228838 -49.38318531 119.2855939 C-65.22717584 119.3093244 -81.07114265 119.32177063 -96.91515124 119.32293582 C-105.81174011 119.32385195 -114.70826743 119.32958799 -123.60483932 119.34775543 C-131.18502591 119.36317977 -138.76513194 119.36826337 -146.34533124 119.36001733 C-150.21097028 119.35611825 -154.07644723 119.35700372 -157.94206619 119.37107468 C-162.13999103 119.3862148 -166.3375528 119.37792455 -170.53549194 119.36749268 C-172.35406206 119.37957728 -172.35406206 119.37957728 -174.20937097 119.39190602 C-189.68964408 119.30210395 -202.43887167 114.25256487 -213.7109375 103.53515625 C-225.65472091 90.30731422 -227.9041794 74.5663929 -227.3828125 57.453125 C-226.62140501 43.47962152 -220.3301567 30.51878424 -210 21 C-199.63698702 13.20382562 -189.18568968 8.90538972 -176.18647766 8.84851074 C-175.19578499 8.84216213 -175.19578499 8.84216213 -174.18507832 8.83568525 C-171.98576917 8.82273364 -169.78649619 8.81665195 -167.5871582 8.81054688 C-166.00495181 8.80259879 -164.42274757 8.79421039 -162.84054565 8.78541565 C-159.44062747 8.76739889 -156.04071391 8.75236928 -152.64077187 8.73963928 C-147.2668464 8.71938148 -141.89297444 8.69173617 -136.51908875 8.66296387 C-124.14624364 8.5978409 -111.773359 8.54231145 -99.40046692 8.48697662 C-88.05113833 8.43613707 -76.70182928 8.38328009 -65.35254925 8.32245111 C-60.0078315 8.29408633 -54.66312016 8.27049692 -49.31836474 8.25052643 C-45.99895642 8.23715557 -42.67957833 8.21974302 -39.36019516 8.20121574 C-37.81824062 8.1934499 -36.27627645 8.18738461 -34.73430824 8.18312263 C-32.63367763 8.17708847 -30.53316494 8.16504647 -28.43257141 8.15148926 C-27.25586034 8.14633553 -26.07914927 8.14118179 -24.86678028 8.13587189 C-21.92733126 8.12631069 -21.92733126 8.12631069 -19 7 C-18.67 5.35 -18.34 3.7 -18 2 C-12.06 2 -6.12 2 0 2 C0 1.34 0 0.68 0 0 Z " fill="#39D0DE" transform="translate(301,378)"/>
<path d="M0 0 C1.546875 1.0828125 1.546875 1.0828125 3.125 2.1875 C12.73399732 10.65123892 19.39440446 22.21021324 20.2734375 34.96875 C20.73495856 49.53158886 17.36680805 60.56263438 8 72 C7.43925781 72.68578125 6.87851562 73.3715625 6.30078125 74.078125 C-6.17383153 87.82455296 -25.83472199 94.86753605 -43.96533203 96.22143555 C-69.48149092 97.19042976 -91.5993776 91.90881851 -110.86328125 74.19140625 C-117.47000895 67.41558497 -121.3195564 60.02127792 -124 51 C-124.19207031 50.39027344 -124.38414062 49.78054687 -124.58203125 49.15234375 C-127.28531472 35.23169711 -123.76456721 23.22130707 -115.96484375 11.62890625 C-109.40635353 2.85382888 -101.5463083 -2.74895466 -92 -8 C-91.12730469 -8.4846875 -90.25460938 -8.969375 -89.35546875 -9.46875 C-60.44424057 -24.03539031 -25.65534939 -18.21707969 0 0 Z " fill="#030203" transform="translate(337,193)"/>
<path d="M0 0 C1.04551737 -0.00199105 2.09103475 -0.0039821 3.16823447 -0.00603348 C4.32580233 -0.00312064 5.48337018 -0.0002078 6.67601585 0.00279331 C7.89870686 0.00193889 9.12139786 0.00108446 10.38114011 0.00020415 C13.78571325 -0.00116263 17.19022943 0.00197954 20.5947957 0.00698221 C24.26214315 0.01128749 27.92948874 0.00984023 31.596838 0.00907993 C37.95434679 0.00855475 44.31184536 0.01170098 50.66935158 0.01731777 C59.86131804 0.0254335 69.05327954 0.02804807 78.2452492 0.02930576 C93.1574261 0.03149617 108.06959754 0.03815594 122.98177147 0.04760838 C137.47037796 0.05678279 151.95898297 0.06386348 166.44759178 0.06811619 C167.34017801 0.06837891 168.23276424 0.06864164 169.15239854 0.06891232 C173.63009457 0.07021733 178.10779061 0.07148104 182.58548665 0.07272422 C219.75176529 0.08309648 256.91803713 0.10098906 294.08431053 0.12304783 C294.08431053 13.32304783 294.08431053 26.52304783 294.08431053 40.12304783 C256.11264926 40.21346326 218.14101627 40.28508083 180.16926902 40.32730915 C175.68692916 40.33231201 171.20458952 40.33748929 166.72224998 40.34277439 C165.82989234 40.34382363 164.9375347 40.34487287 164.01813591 40.34595391 C149.56691119 40.3633618 135.11575009 40.39490161 120.66456311 40.43165901 C105.83764057 40.46905775 91.01075136 40.49128142 76.18378359 40.49940181 C67.03384034 40.5048918 57.88407689 40.52223492 48.73418898 40.5547137 C42.46079018 40.5758484 36.18748442 40.58225024 29.9140526 40.57705334 C26.2939107 40.57448991 22.67408313 40.57843482 19.05399704 40.59986973 C15.12831113 40.62294428 11.20303479 40.61500104 7.27728844 40.6040659 C6.13428479 40.61571726 4.99128114 40.62736863 3.81364101 40.63937306 C-2.65172711 40.59058786 -6.6909198 40.04423386 -11.91568947 36.12304783 C-16.10053888 31.13682513 -16.3090624 25.77160898 -16.41568947 19.49804783 C-16.43430031 18.76948582 -16.45291115 18.04092381 -16.47208595 17.29028416 C-16.41168227 12.14072331 -15.25229626 9.2235298 -11.91568947 5.12304783 C-7.76774838 1.46890925 -5.48515829 -0.00229505 0 0 Z " fill="#CAC4CA" transform="translate(124.91568946838379,421.8769521713257)"/>
<path d="M0 0 C4.53897705 -0.02465392 9.07791543 -0.04283789 13.61694336 -0.05493164 C15.16219766 -0.0599714 16.70744716 -0.0668032 18.25268555 -0.07543945 C20.46925029 -0.08752076 22.68575218 -0.09323173 24.90234375 -0.09765625 C25.5971434 -0.10281754 26.29194305 -0.10797882 27.00779724 -0.11329651 C28.6722933 -0.11349277 30.33665499 -0.06189129 32 0 C33.93618769 1.93618769 33.12298391 4.85981791 33.12908131 7.43680197 C33.12471205 8.83901052 33.12471205 8.83901052 33.12025452 10.26954651 C33.12110894 11.25453705 33.12196337 12.2395276 33.12284368 13.25436634 C33.12450147 16.58178635 33.11897225 19.90915684 33.11352539 23.23657227 C33.11324356 25.6110738 33.11340118 27.98557542 33.1139679 30.3600769 C33.11422605 36.1559002 33.10987473 41.95170706 33.10353024 47.74752659 C33.0963963 54.48902125 33.09488635 61.23051353 33.09374207 67.97201144 C33.09155123 79.99526046 33.08489027 92.01850271 33.07543945 104.04174805 C33.06626616 115.72403937 33.05918492 127.40632885 33.05493164 139.08862305 C33.05466892 139.80822626 33.05440619 140.52782947 33.05413551 141.26923884 C33.05283051 144.87912936 33.05156679 148.4890199 33.05032361 152.09891045 C33.03995 182.06594518 33.02205639 212.03297145 33 242 C19.14 242 5.28 242 -9 242 C-9 241.67 -9 241.34 -9 241 C-6.03 241 -3.06 241 0 241 C0 230.11 0 219.22 0 208 C-2.97 208 -5.94 208 -9 208 C-12 205 -12 205 -12.375 201.1875 C-12.17529576 196.24935879 -10.65017769 192.65017769 -7.125 189.125 C-5 188 -5 188 0 188 C0 155.66 0 123.32 0 90 C2.31 90 4.62 90 7 90 C9.66666667 88.66666667 9.66666667 88.66666667 11 86 C10.55154003 80.5013948 9.4846615 75.20660783 8.2578125 69.8359375 C8.08877411 69.08140289 7.91973572 68.32686829 7.74557495 67.54946899 C7.20891582 65.15716842 6.66716689 62.76605772 6.125 60.375 C5.76916883 58.79565453 5.41369747 57.21622794 5.05859375 55.63671875 C4.88436386 54.86272736 4.71013397 54.08873596 4.53062439 53.29129028 C4.18223058 51.73837898 3.83568108 50.18505275 3.49098206 48.63131714 C2.7198469 45.16024831 1.92592248 41.70411422 1.06225586 38.25439453 C-1.00765775 29.69184991 -1.21196233 21.8969806 -0.6875 13.125 C-0.5956543 11.21654297 -0.5956543 11.21654297 -0.50195312 9.26953125 C-0.35088609 6.1784672 -0.18340418 3.08928441 0 0 Z " fill="#F8ACDC" transform="translate(405,15)"/>
<path d="M0 0 C0.18700645 20.3319232 0.32801606 40.66367153 0.41449738 60.99627686 C0.45572234 70.4374265 0.51191086 79.87804133 0.60351562 89.31884766 C0.6833346 97.54894148 0.73488481 105.77864794 0.75270796 114.00911808 C0.76312443 118.36603318 0.78754568 122.72184026 0.84584045 127.07839966 C0.90031285 131.1827146 0.91685949 135.28546982 0.90486145 139.39011192 C0.90705489 140.89296649 0.92287101 142.39587544 0.9536438 143.89841652 C1.17380205 155.20672147 1.17380205 155.20672147 -1.69923401 159.5960083 C-3.69771629 161.62796219 -5.70915719 163.31090312 -8 165 C-9.36154903 166.17902835 -10.71674969 167.36547046 -12.0625 168.5625 C-12.72378906 169.13097656 -13.38507813 169.69945312 -14.06640625 170.28515625 C-16.56431556 172.5004738 -18.88024989 174.8689817 -21.21875 177.25 C-23.08389674 179.08242487 -25.01927746 180.79353135 -27 182.5 C-31.43588794 186.32433834 -35.59876485 190.40213766 -39.57421875 194.703125 C-41 196 -41 196 -43 196 C-43.00586624 195.1296965 -43.01173248 194.25939301 -43.01777649 193.36271667 C-43.07564623 185.16657651 -43.14768976 176.97071053 -43.23571491 168.77483654 C-43.28046969 164.56109206 -43.3197143 160.34744541 -43.34643555 156.13354492 C-43.37241795 152.06795155 -43.41278373 148.00273362 -43.46318626 143.93737221 C-43.47988942 142.38526385 -43.49138219 140.8330905 -43.49761391 139.28090477 C-43.50721798 137.10898727 -43.5352303 134.93803772 -43.56762695 132.76635742 C-43.57873001 131.52947678 -43.58983307 130.29259613 -43.60127258 129.01823425 C-43.75430729 126.04929761 -43.75430729 126.04929761 -45.27702332 124.20210266 C-47.29810143 122.73010523 -47.29810143 122.73010523 -51 121 C-51 115.39 -51 109.78 -51 104 C-49.02 103.01 -47.04 102.02 -45 101 C-43.71963673 98.43927345 -43.86845018 96.61398411 -43.8581543 93.74682617 C-43.85111984 92.64775436 -43.84408539 91.54868256 -43.83683777 90.41630554 C-43.83267349 89.2206044 -43.82850922 88.02490326 -43.82421875 86.79296875 C-43.8009982 84.2610596 -43.77688 81.72915855 -43.75195312 79.19726562 C-43.71700421 75.20600168 -43.68759409 71.21527446 -43.67407227 67.22387695 C-43.65846605 63.37154279 -43.61814934 59.52007119 -43.57421875 55.66796875 C-43.57612717 54.49453415 -43.57803558 53.32109955 -43.58000183 52.11210632 C-43.37025803 37.69230014 -38.68008002 23.87960055 -28.75 13.1875 C-20.73551594 5.85433673 -11.08615075 0 0 0 Z " fill="#DCD8DC" transform="translate(117,16)"/>
<path d="M0 0 C1.48337608 0.00636726 1.48337608 0.00636726 2.99671936 0.01286316 C6.13481634 0.02956746 9.27225553 0.0672046 12.41015625 0.10546875 C14.54621464 0.12052624 16.68228316 0.13421278 18.81835938 0.14648438 C24.03668027 0.17944382 29.25462125 0.22956037 34.47265625 0.29296875 C34.50238525 1.48841309 34.50238525 1.48841309 34.53271484 2.70800781 C34.62798873 6.31999347 34.73765932 9.93140274 34.84765625 13.54296875 C34.87859375 14.79722656 34.90953125 16.05148437 34.94140625 17.34375 C34.98007812 18.54902344 35.01875 19.75429688 35.05859375 20.99609375 C35.09001465 22.10629883 35.12143555 23.21650391 35.15380859 24.36035156 C35.56331286 28.13378167 35.56331286 28.13378167 37.47265625 31.29296875 C39.45265625 31.95296875 41.43265625 32.61296875 43.47265625 33.29296875 C43.47265625 39.56296875 43.47265625 45.83296875 43.47265625 52.29296875 C41.49265625 52.95296875 39.51265625 53.61296875 37.47265625 54.29296875 C35.91607143 55.84955357 36.30956226 57.37164611 36.26733398 59.53735352 C36.2471521 60.45085571 36.22697021 61.36435791 36.20617676 62.30554199 C36.18970093 63.27205688 36.1732251 64.23857178 36.15625 65.234375 C36.13759888 66.11798706 36.11894775 67.00159912 36.09973145 67.9119873 C36.03121073 71.22637524 35.97120475 74.54093477 35.91015625 77.85546875 C35.76578125 85.25984375 35.62140625 92.66421875 35.47265625 100.29296875 C12.04265625 100.29296875 -11.38734375 100.29296875 -35.52734375 100.29296875 C-35.58921875 88.78421875 -35.65109375 77.27546875 -35.71484375 65.41796875 C-35.74215576 61.80230957 -35.76946777 58.18665039 -35.79760742 54.46142578 C-35.81115723 49.99975586 -35.81115723 49.99975586 -35.81367493 47.90206909 C-35.81824074 46.45664691 -35.82870573 45.01123518 -35.84407043 43.56588745 C-35.97046879 31.0343929 -34.98722251 20.18423698 -26.52734375 10.29296875 C-18.25690319 2.53472305 -11.17053729 -0.18241365 0 0 Z " fill="#7E4C9C" transform="translate(402.52734375,271.70703125)"/>
<path d="M0 0 C101.97 0 203.94 0 309 0 C309 6.6 309 13.2 309 20 C271.02834216 20.09123937 233.05670382 20.162033 195.08495849 20.20426132 C190.60261863 20.20926418 186.12027899 20.21444146 181.63793945 20.21972656 C180.74558181 20.2207758 179.85322417 20.22182505 178.93382538 20.22290608 C164.48260066 20.24031397 150.03143956 20.27185378 135.58025258 20.30861118 C120.75333004 20.34600992 105.92644083 20.36823359 91.09947306 20.37635398 C81.94952981 20.38184397 72.79976636 20.39918709 63.64987845 20.43166587 C57.37647965 20.45280058 51.10317389 20.45920241 44.82974207 20.45400551 C41.20960017 20.45144209 37.58977259 20.45538699 33.96968651 20.4768219 C30.0440006 20.49989645 26.11872426 20.49195321 22.19297791 20.48101807 C21.04997425 20.49266943 19.9069706 20.5043208 18.72933048 20.51632524 C12.2530103 20.46745739 8.26554791 19.86548802 3 16 C-1.64742801 11.05273792 0 7.58112281 0 0 Z " fill="#E0DCE0" transform="translate(110,442)"/>
<path d="M0 0 C0.33 0 0.66 0 1 0 C1.12391876 4.75047352 1.21448561 9.49999961 1.2746582 14.25170898 C1.29974959 15.86678461 1.33383126 17.48174726 1.37719727 19.09643555 C1.43809286 21.42264706 1.46626124 23.74735359 1.48828125 26.07421875 C1.51408768 26.79212082 1.5398941 27.51002289 1.56648254 28.24967957 C1.56762695 30.3112793 1.56762695 30.3112793 1 34 C0.17663651 34.71493118 -0.64672699 35.42986237 -1.49504089 36.16645813 C-4.96747041 40.09437632 -4.7078761 42.94795194 -4.64697266 48.02539062 C-4.65573425 48.92517136 -4.66449585 49.82495209 -4.67352295 50.7519989 C-4.6954952 53.72057592 -4.68097184 56.68765835 -4.6640625 59.65625 C-4.66743126 61.72221156 -4.67228437 63.78817119 -4.67855835 65.85412598 C-4.68592674 70.18175139 -4.67522496 74.50886044 -4.65185547 78.83642578 C-4.62336804 84.38180899 -4.63977214 89.92598228 -4.66971779 95.47132111 C-4.68779146 99.73676662 -4.68203234 104.00192559 -4.66907883 108.26737976 C-4.66574502 110.31190637 -4.66983097 112.35645904 -4.68147659 114.4009552 C-4.69418621 117.25954014 -4.67480665 120.11616997 -4.64697266 122.97460938 C-4.66215439 124.24028999 -4.66215439 124.24028999 -4.67764282 125.53153992 C-4.59902814 129.89277372 -4.47974531 131.45095994 -1.50297546 134.85769653 C-0.67699356 135.56465668 0.14898834 136.27161682 1 137 C1.92228293 141.38481508 1.84494263 145.77021757 1.81665039 150.23730469 C1.81251954 152.36493593 1.87755379 154.48304076 1.94726562 156.609375 C2.07947334 166.47720191 2.07947334 166.47720191 -0.7043457 170.40429688 C-2.7161289 172.1581711 -4.73982254 173.5877005 -7 175 C-8.28864713 176.23162735 -9.56576459 177.47596382 -10.8125 178.75 C-11.35519531 179.30171875 -11.89789063 179.8534375 -12.45703125 180.421875 C-13.51170506 181.50057936 -14.55021204 182.59526662 -15.57421875 183.703125 C-17 185 -17 185 -19 185 C-19.00586624 184.1296965 -19.01173248 183.25939301 -19.01777649 182.36271667 C-19.07564623 174.16657651 -19.14768976 165.97071053 -19.23571491 157.77483654 C-19.28046969 153.56109206 -19.3197143 149.34744541 -19.34643555 145.13354492 C-19.37241795 141.06795155 -19.41278373 137.00273362 -19.46318626 132.93737221 C-19.47988942 131.38526385 -19.49138219 129.8330905 -19.49761391 128.28090477 C-19.50721798 126.10898727 -19.5352303 123.93803772 -19.56762695 121.76635742 C-19.57873001 120.52947678 -19.58983307 119.29259613 -19.60127258 118.01823425 C-19.75430729 115.04929761 -19.75430729 115.04929761 -21.27702332 113.20210266 C-23.29810143 111.73010523 -23.29810143 111.73010523 -27 110 C-27 104.39 -27 98.78 -27 93 C-25.02 92.01 -23.04 91.02 -21 90 C-19.71963673 87.43927345 -19.86845018 85.61398411 -19.8581543 82.74682617 C-19.85111984 81.64775436 -19.84408539 80.54868256 -19.83683777 79.41630554 C-19.83267349 78.2206044 -19.82850922 77.02490326 -19.82421875 75.79296875 C-19.8009982 73.2610596 -19.77688 70.72915855 -19.75195312 68.19726562 C-19.71700421 64.20600168 -19.68759409 60.21527446 -19.67407227 56.22387695 C-19.65846605 52.37154279 -19.61814934 48.52007119 -19.57421875 44.66796875 C-19.57612717 43.49453415 -19.57803558 42.32109955 -19.58000183 41.11210632 C-19.39481726 28.38073791 -16.11211465 15.13821416 -6.87109375 5.86328125 C-4.95728582 4.17543275 -3.01105084 2.56948359 -1 1 C-0.67 0.67 -0.34 0.34 0 0 Z " fill="#ECE9EC" transform="translate(93,27)"/>
<path d="M0 0 C0 4.29 0 8.58 0 13 C-1.03125 13.53625 -2.0625 14.0725 -3.125 14.625 C-6.98910285 16.88365075 -10.59401525 19.13686955 -13 23 C-13.75155069 26.13504004 -14.04830117 28.92537368 -13 32 C-12.17242187 32.34804688 -11.34484375 32.69609375 -10.4921875 33.0546875 C-8 35 -8 35 -7.56079102 37.32250977 C-7.42540377 40.36781339 -7.4020781 43.38935193 -7.4375 46.4375 C-7.45411482 48.51946536 -7.45349754 50.60165723 -7.43359375 52.68359375 C-7.44990845 54.06889282 -7.44990845 54.06889282 -7.46655273 55.48217773 C-6.85524942 58.78116834 -5.58512928 59.9296179 -3 62 C-2.01 62.33 -1.02 62.66 0 63 C0 65.64 0 68.28 0 71 C-1.10859375 71.03738281 -2.2171875 71.07476562 -3.359375 71.11328125 C-4.82294974 71.17895448 -6.28648991 71.24540135 -7.75 71.3125 C-8.47960937 71.33505859 -9.20921875 71.35761719 -9.9609375 71.38085938 C-13.16484129 71.54105456 -15.63618473 71.80638403 -18.48828125 73.32421875 C-20.34711657 75.06326381 -20.34711657 75.06326381 -20.4375 78.5 C-20.29958047 81.91046621 -20.29958047 81.91046621 -18.625 83.875 C-15.04066001 86.35646615 -11.60517806 86.32445492 -7.375 86.5625 C-6.31539063 86.62727539 -6.31539063 86.62727539 -5.234375 86.69335938 C-3.48981463 86.79944751 -1.74493303 86.90022889 0 87 C0 91.29 0 95.58 0 100 C-12.54 100 -25.08 100 -38 100 C-38.12032643 82.68190744 -38.12032643 82.68190744 -38.14648438 75.25 C-38.16435703 70.19619188 -38.18540732 65.14254818 -38.22631836 60.08886719 C-38.25912437 56.0104582 -38.27689737 51.93222576 -38.28463173 47.85369492 C-38.29013739 46.30450541 -38.30088773 44.7553246 -38.31719017 43.20621109 C-38.44347996 30.69831114 -37.44204021 19.87041144 -29 10 C-19.85447568 1.42086516 -12.39282894 -0.38328337 0 0 Z " fill="#9459B8" transform="translate(405,272)"/>
<path d="M0 0 C4.15322991 0.59331856 4.85411221 1.36350139 7.5 4.5 C9.05566406 7.24902344 9.05566406 7.24902344 10.515625 10.359375 C11.04414063 11.47441406 11.57265625 12.58945312 12.1171875 13.73828125 C12.65601563 14.89714844 13.19484375 16.05601563 13.75 17.25 C14.30429688 18.42433594 14.85859375 19.59867188 15.4296875 20.80859375 C16.79415976 23.70221595 18.15058661 26.59933246 19.5 29.5 C21.87644336 26.54158821 23.5150228 23.59429025 25.09375 20.1484375 C25.56683594 19.13265625 26.03992188 18.116875 26.52734375 17.0703125 C27.51208534 14.93365833 28.49384018 12.79562518 29.47265625 10.65625 C29.94574219 9.64304687 30.41882813 8.62984375 30.90625 7.5859375 C31.33228516 6.6582959 31.75832031 5.7306543 32.19726562 4.77490234 C33.5 2.5 33.5 2.5 36.5 0.5 C42.62517864 -0.16820131 42.62517864 -0.16820131 45.69030762 2.17298889 C47.92292871 5.04382712 48.00597064 6.50119857 48.01757812 10.10717773 C48.03018677 11.23192001 48.04279541 12.35666229 48.05578613 13.51548767 C48.04768921 14.72596268 48.03959229 15.93643768 48.03125 17.18359375 C48.0350769 18.43125015 48.03890381 19.67890656 48.04284668 20.96437073 C48.04556933 23.60352045 48.04019875 26.24118892 48.02148438 28.88012695 C47.99871695 32.25417851 48.01180454 35.62695574 48.03577423 39.00096035 C48.05374989 42.22854974 48.04114237 45.45598769 48.03125 48.68359375 C48.03934692 49.89204453 48.04744385 51.1004953 48.05578613 52.3455658 C48.04317749 53.47346024 48.03056885 54.60135468 48.01757812 55.76342773 C48.01280457 57.24757423 48.01280457 57.24757423 48.00793457 58.76170349 C47.35288566 62.29309955 46.02409358 63.9826884 43.5 66.5 C40 67.125 40 67.125 36.5 66.5 C33.29163802 63.60901196 32.24950234 61.26815784 31.890625 57.07421875 C31.82470408 55.44597206 31.77829153 53.81683496 31.75 52.1875 C31.72035156 51.35154297 31.69070312 50.51558594 31.66015625 49.65429688 C31.58983893 47.60337515 31.54261027 45.55168438 31.5 43.5 C31.10167969 44.27085938 30.70335937 45.04171875 30.29296875 45.8359375 C29.76316406 46.83882812 29.23335937 47.84171875 28.6875 48.875 C28.16542969 49.87273437 27.64335937 50.87046875 27.10546875 51.8984375 C25.5 54.5 25.5 54.5 22.5 56.5 C19.125 56.625 19.125 56.625 15.5 55.5 C12.1300728 51.71653082 10.3077045 47.1787646 8.5 42.5 C8.4906543 43.08491211 8.48130859 43.66982422 8.47167969 44.27246094 C8.41786721 46.9324858 8.33424551 49.59077222 8.25 52.25 C8.22873047 53.63058594 8.22873047 53.63058594 8.20703125 55.0390625 C7.96048609 61.84370893 7.96048609 61.84370893 5.671875 65.10546875 C2.42230176 67.19197531 0.26874227 67.10569072 -3.5 66.5 C-7.0017382 63.01392686 -8.00182458 60.66135815 -8.01757812 55.76342773 C-8.03018677 54.63553329 -8.04279541 53.50763885 -8.05578613 52.3455658 C-8.04768921 51.13711502 -8.03959229 49.92866425 -8.03125 48.68359375 C-8.0350769 47.43498062 -8.03890381 46.18636749 -8.04284668 44.8999176 C-8.0455668 42.26254564 -8.04021935 39.62666093 -8.02148438 36.98950195 C-7.99867043 33.614261 -8.0118386 30.2402907 -8.03577423 26.86509609 C-8.0537228 23.63788334 -8.0411488 20.41082309 -8.03125 17.18359375 C-8.03934692 15.97311874 -8.04744385 14.76264374 -8.05578613 13.51548767 C-8.04317749 12.39074539 -8.03056885 11.26600311 -8.01757812 10.10717773 C-8.01439575 9.11854233 -8.01121338 8.12990692 -8.00793457 7.11131287 C-7.07921964 2.33675056 -4.66448873 0.66635553 0 0 Z " fill="#020202" transform="translate(166.5,39.5)"/>
<path d="M0 0 C0 20.46 0 40.92 0 62 C-4.723125 64.371875 -9.44625 66.74375 -14.3125 69.1875 C-15.77856689 69.92508545 -17.24463379 70.6626709 -18.75512695 71.42260742 C-39.83023802 82 -39.83023802 82 -43 82 C-43 61.54 -43 41.08 -43 20 C-3 0 -3 0 0 0 Z " fill="#C697E0" transform="translate(117,252)"/>
<path d="M0 0 C4.15093127 0.59299018 4.83066578 1.39431966 7.5 4.5 C8.63713866 6.27075474 9.71236986 8.08226575 10.734375 9.921875 C11.30800781 10.94667969 11.88164062 11.97148438 12.47265625 13.02734375 C13.05917969 14.09082031 13.64570313 15.15429688 14.25 16.25 C14.85199219 17.32894531 15.45398438 18.40789063 16.07421875 19.51953125 C17.55549261 22.17641928 19.0304902 24.83659288 20.5 27.5 C20.5093457 26.82420898 20.51869141 26.14841797 20.52832031 25.45214844 C20.58207301 22.3840289 20.66570992 19.31742613 20.75 16.25 C20.76417969 15.18652344 20.77835937 14.12304688 20.79296875 13.02734375 C20.82519531 12.00253906 20.85742188 10.97773437 20.890625 9.921875 C20.91157227 8.97924805 20.93251953 8.03662109 20.95410156 7.06542969 C21.65698022 3.7622772 22.85776292 2.55060316 25.5 0.5 C29 0 29 0 32.5 0.5 C35.21373493 2.57783824 36.35951116 3.76537942 37.00793457 7.15600586 C37.01111694 8.16542236 37.01429932 9.17483887 37.01757812 10.21484375 C37.03018677 11.36283447 37.04279541 12.5108252 37.05578613 13.69360352 C37.04768921 14.92908936 37.03959229 16.1645752 37.03125 17.4375 C37.0350769 18.70972412 37.03890381 19.98194824 37.04284668 21.29272461 C37.04556927 23.98313827 37.04019814 26.67209871 37.02148438 29.36230469 C36.99869362 32.80594745 37.01181969 36.24834327 37.03577423 39.69194031 C37.05372552 42.98217128 37.0411472 46.27225275 37.03125 49.5625 C37.03934692 50.79798584 37.04744385 52.03347168 37.05578613 53.30639648 C37.04317749 54.45438721 37.03056885 55.60237793 37.01757812 56.78515625 C37.01280457 58.29928101 37.01280457 58.29928101 37.00793457 59.84399414 C36.3594881 63.23474115 35.21125816 64.41921419 32.5 66.5 C29 67.0625 29 67.0625 25.5 66.5 C22.54140182 63.28673314 20.38932526 59.78189222 18.265625 55.98046875 C17.69199219 54.95888672 17.11835938 53.93730469 16.52734375 52.88476562 C15.94082031 51.82966797 15.35429687 50.77457031 14.75 49.6875 C14.14800781 48.61306641 13.54601562 47.53863281 12.92578125 46.43164062 C11.44645994 43.78999542 9.97135569 41.1460876 8.5 38.5 C8.4906543 39.1705542 8.48130859 39.8411084 8.47167969 40.53198242 C8.41783404 43.58455567 8.33421505 46.63561982 8.25 49.6875 C8.22873047 51.27014648 8.22873047 51.27014648 8.20703125 52.88476562 C7.96072256 60.69275107 7.96072256 60.69275107 5.671875 64.703125 C3.5 66.5 3.5 66.5 0 67.0625 C-4.07373815 66.40779208 -5.00514248 65.69426396 -7.5 62.5 C-8.00793457 59.84399414 -8.00793457 59.84399414 -8.01757812 56.78515625 C-8.03018677 55.63716553 -8.04279541 54.4891748 -8.05578613 53.30639648 C-8.04768921 52.07091064 -8.03959229 50.8354248 -8.03125 49.5625 C-8.0350769 48.29027588 -8.03890381 47.01805176 -8.04284668 45.70727539 C-8.04556927 43.01686173 -8.04019814 40.32790129 -8.02148438 37.63769531 C-7.99869362 34.19405255 -8.01181969 30.75165673 -8.03577423 27.30805969 C-8.05372552 24.01782872 -8.0411472 20.72774725 -8.03125 17.4375 C-8.03934692 16.20201416 -8.04744385 14.96652832 -8.05578613 13.69360352 C-8.04317749 12.54561279 -8.03056885 11.39762207 -8.01757812 10.21484375 C-8.01439575 9.20542725 -8.01121338 8.19601074 -8.00793457 7.15600586 C-7.08905066 2.35113297 -4.69776773 0.67110968 0 0 Z " fill="#020202" transform="translate(278.5,39.5)"/>
<path d="M0 0 C35.97 0 71.94 0 109 0 C112.7888245 8.84059049 113.8278102 17.32185422 110.86328125 26.53125 C108.14766861 32.29034453 105.31103955 36.45930697 100 40 C99.6596875 39.23816406 99.319375 38.47632813 98.96875 37.69140625 C92.12464684 23.11128224 83.18539587 15.58336995 68.32421875 9.76171875 C57.03509179 6.06192084 44.76809389 7.51668806 34.046875 12.32421875 C21.67500184 18.76367732 14.80928612 27.35625963 9 40 C2.64470622 34.18944568 -2.51210463 27.07255489 -3.21875 18.27734375 C-3.43812833 11.04699957 -2.4558597 7.3675791 0 0 Z " fill="#F652B2" transform="translate(230,218)"/>
<path d="M0 0 C6.30889634 2.84327436 10.82063545 8.06266943 13.58203125 14.34765625 C14.19252931 18.44671467 13.9512236 19.84816072 11.45703125 23.22265625 C8.58203125 25.34765625 8.58203125 25.34765625 5.51953125 25.97265625 C2.58203125 25.34765625 2.58203125 25.34765625 0.39453125 23.16015625 C-1.41796875 20.34765625 -1.41796875 20.34765625 -2.66796875 17.53515625 C-4.16403213 15.19575047 -4.16403213 15.19575047 -6.3125 14.9296875 C-8.78280936 14.77709368 -8.78280936 14.77709368 -12.41796875 15.34765625 C-15.79721064 20.41651909 -14.74525798 26.39647039 -14.73046875 32.34765625 C-14.74658203 33.64445312 -14.76269531 34.94125 -14.77929688 36.27734375 C-14.77994141 37.51742187 -14.78058594 38.7575 -14.78125 40.03515625 C-14.78423096 41.17339844 -14.78721191 42.31164062 -14.7902832 43.484375 C-14.64809982 46.3358438 -14.64809982 46.3358438 -13.08276367 48.21875 C-10.48017264 49.98358076 -8.47092641 49.72927596 -5.41796875 49.34765625 C-2.85847329 47.4942285 -2.43878077 46.41009232 -1.41796875 43.34765625 C-2.18109375 43.26515625 -2.94421875 43.18265625 -3.73046875 43.09765625 C-6.41796875 42.34765625 -6.41796875 42.34765625 -8.29296875 40.72265625 C-9.94364968 37.23788539 -9.41715515 35.01133972 -8.41796875 31.34765625 C-6.08467909 28.97034226 -4.68173203 28.38504798 -1.359375 27.9140625 C-0.24433594 27.91277344 0.87070312 27.91148438 2.01953125 27.91015625 C3.68822266 27.88115234 3.68822266 27.88115234 5.390625 27.8515625 C9.39458941 28.47396578 10.9586659 29.24293946 13.58203125 32.34765625 C14.3093911 35.28330339 14.29453184 38.08622854 14.20703125 41.09765625 C14.1930127 41.90807373 14.17899414 42.71849121 14.16455078 43.5534668 C13.91950054 49.58401924 13.00777665 53.99124368 8.58203125 58.34765625 C8.07800781 58.84394531 7.57398438 59.34023437 7.0546875 59.8515625 C1.13326046 65.14016528 -3.37439375 65.80920087 -11.15625 65.65234375 C-16.71234112 65.13333165 -20.34961345 63.56408173 -24.1640625 59.4765625 C-30.498439 51.44086665 -30.79072675 44.26301695 -30.78857422 34.31079102 C-30.79293598 32.05212331 -30.82925736 29.79543046 -30.8671875 27.53710938 C-30.93649723 18.81857343 -30.6743032 12.18270284 -24.63671875 5.32421875 C-24.06953125 4.87820312 -23.50234375 4.4321875 -22.91796875 3.97265625 C-22.35078125 3.51117188 -21.78359375 3.0496875 -21.19921875 2.57421875 C-14.87760919 -1.77881941 -7.37575405 -1.98990457 0 0 Z " fill="#040303" transform="translate(353.41796875,40.65234375)"/>
<path d="M0 0 C1.96453125 0.02320313 1.96453125 0.02320313 3.96875 0.046875 C5.2784375 0.03140625 6.588125 0.0159375 7.9375 0 C11.46875 0.796875 11.46875 0.796875 13.75390625 2.99609375 C16.63979903 8.26171894 17.32096217 14.53135306 18.40625 20.359375 C18.91370712 22.96808049 19.42357219 25.57617038 19.9375 28.18359375 C20.19015625 29.47056152 20.4428125 30.7575293 20.703125 32.08349609 C21.95743482 38.16705869 23.46753643 44.18865566 25.08374023 50.18579102 C26.32390969 55.05107118 26.67182684 58.79898665 25.46875 63.796875 C23.21457958 66.3849966 21.86354021 66.73930143 18.46875 67.234375 C15.46875 66.796875 15.46875 66.796875 13.15625 65.234375 C11.00077866 62.12091639 10.7559449 59.53040864 10.46875 55.796875 C6.17875 55.796875 1.88875 55.796875 -2.53125 55.796875 C-2.655 57.405625 -2.655 57.405625 -2.78125 59.046875 C-3.53125 62.796875 -3.53125 62.796875 -5.15625 65.234375 C-8.45620309 67.40539677 -10.66176412 67.28935502 -14.53125 66.796875 C-16.77919094 65.17577622 -17.44702084 64.28583686 -17.92089844 61.53491211 C-17.83669666 54.16929339 -16.58474919 47.48529141 -14.78125 40.359375 C-14.2237202 38.07491055 -13.66906397 35.789743 -13.1171875 33.50390625 C-12.84487305 32.37807129 -12.57255859 31.25223633 -12.29199219 30.09228516 C-10.9950136 24.47398703 -9.94894578 18.80272278 -9.00097656 13.11547852 C-7.88693615 7.01774557 -6.72478728 1.51754049 0 0 Z " fill="#030203" transform="translate(390.53125,39.203125)"/>
<path d="M0 0 C0.67675781 -0.01998047 1.35351562 -0.03996094 2.05078125 -0.06054688 C4.97612577 -0.05766192 6.98011039 0.0311623 9.32421875 1.86328125 C11.12110444 5.79732667 11.9362932 9.83996457 12.8125 14.0625 C13.23832663 16.04063553 13.66546765 18.01848845 14.09375 19.99609375 C14.31804687 21.04007324 14.54234375 22.08405273 14.7734375 23.15966797 C15.5241783 26.54657857 16.33183606 29.91545967 17.15625 33.28515625 C17.43170654 34.42452637 17.70716309 35.56389648 17.9909668 36.73779297 C18.52528317 38.94079604 19.06797166 41.14179111 19.62036133 43.34033203 C22.88106435 56.98535085 22.88106435 56.98535085 21.5 63.4375 C19.0866487 65.77394195 17.85758633 66.38535199 14.5 66.875 C11.5 66.4375 11.5 66.4375 9.1875 64.875 C7.03202866 61.76154139 6.7871949 59.17103364 6.5 55.4375 C2.21 55.4375 -2.08 55.4375 -6.5 55.4375 C-6.62375 57.04625 -6.62375 57.04625 -6.75 58.6875 C-7.5 62.4375 -7.5 62.4375 -9.125 64.875 C-12.48693999 67.08680263 -14.55974542 67.0707552 -18.5 66.4375 C-21 64.4375 -21 64.4375 -22.5 61.4375 C-22.02677195 55.21695158 -20.67267755 49.20392289 -19.3125 43.125 C-18.8631787 41.10288737 -18.41396478 39.08075087 -17.96484375 37.05859375 C-17.72749512 35.99366699 -17.49014648 34.92874023 -17.24560547 33.83154297 C-16.45596791 30.23706316 -15.69669987 26.63700084 -14.94140625 23.03515625 C-14.41936843 20.5859167 -13.89723483 18.13669756 -13.375 15.6875 C-13.13370361 14.51533936 -12.89240723 13.34317871 -12.64379883 12.13549805 C-12.40814209 11.04406494 -12.17248535 9.95263184 -11.9296875 8.828125 C-11.62393799 7.3745459 -11.62393799 7.3745459 -11.31201172 5.89160156 C-9.35100407 -0.03505173 -5.66894222 -0.05938892 0 0 Z " fill="#030203" transform="translate(242.5,39.5625)"/>
<path d="M0 0 C3.98426359 1.50198435 7.72962699 3.42202876 11.515625 5.36328125 C12.60840759 5.91106735 13.70119019 6.45885345 14.8270874 7.02323914 C17.12991259 8.18102068 19.42935579 9.34555042 21.72558594 10.51635742 C25.2443486 12.30961988 28.77335882 14.08124224 32.3046875 15.84960938 C34.54229874 16.97791404 36.77929957 18.10743023 39.015625 19.23828125 C40.07187073 19.76964188 41.12811646 20.3010025 42.21636963 20.84846497 C43.19458679 21.34875717 44.17280396 21.84904938 45.18066406 22.36450195 C46.04113342 22.80196243 46.90160278 23.23942291 47.78814697 23.69013977 C49.95040035 24.97062707 51.45907451 26.0189439 53 28 C53.70779977 33.57392317 53.70779977 33.57392317 53 36 C49.74715013 38.89547723 46.50650287 40.90228221 42.5703125 42.734375 C41.53455078 43.22228516 40.49878906 43.71019531 39.43164062 44.21289062 C37.79485352 44.97375977 37.79485352 44.97375977 36.125 45.75 C28.83289885 49.18824459 21.57941409 52.64003598 14.5 56.5 C-1.31415849 65.05783098 -1.31415849 65.05783098 -7 64 C-9.375 62.4375 -9.375 62.4375 -11 60 C-11.5625 56.5 -11.5625 56.5 -11 53 C-7.3415746 49.511022 -3.07760347 47.32616523 1.41796875 45.109375 C2.1164241 44.75989807 2.81487946 44.41042114 3.53450012 44.050354 C5.00129935 43.31811844 6.46956438 42.58881251 7.93920898 41.86230469 C10.19447327 40.74655009 12.44415384 39.62009756 14.69335938 38.4921875 C16.12207907 37.78061364 17.55110495 37.06965413 18.98046875 36.359375 C19.65442184 36.02194275 20.32837494 35.6845105 21.02275085 35.33685303 C25.7689142 33 25.7689142 33 28 33 C26.62949179 30.25898357 25.09472082 29.92676746 22.328125 28.64453125 C21.3589917 28.19013672 20.3898584 27.73574219 19.39135742 27.26757812 C17.8363855 26.54731445 17.8363855 26.54731445 16.25 25.8125 C-8.11018213 14.33472681 -8.11018213 14.33472681 -11 10 C-11.45667063 6.4227467 -11.43777431 4.66541695 -9.4375 1.625 C-6.19476997 -0.53682002 -3.73857838 -0.66100598 0 0 Z " fill="#040304" transform="translate(182,127)"/>
<path d="M0 0 C2 1 2 1 3 3 C3.70779977 8.57392317 3.70779977 8.57392317 3 11 C-0.76471754 14.42800298 -4.94832064 16.67278118 -9.48828125 18.890625 C-10.19147995 19.24010193 -10.89467865 19.58957886 -11.6191864 19.949646 C-13.84751806 21.05547121 -16.07989103 22.15284042 -18.3125 23.25 C-19.83165581 24.00204771 -21.35053903 24.75464631 -22.86914062 25.5078125 C-26.57630413 27.34492962 -30.28711344 29.17447894 -34 31 C-34 31.66 -34 32.32 -34 33 C-32.98574951 33.49927002 -31.97149902 33.99854004 -30.92651367 34.51293945 C-27.16077568 36.36863803 -23.3990279 38.23230314 -19.63842773 40.09838867 C-18.01092365 40.90460222 -16.38234854 41.70865745 -14.75268555 42.51049805 C-12.40908784 43.66408241 -10.06946401 44.82539902 -7.73046875 45.98828125 C-7.00224411 46.34465164 -6.27401947 46.70102203 -5.52372742 47.06819153 C0.67085091 50.16444932 0.67085091 50.16444932 3 53 C3.50030235 56.93094707 3.5996142 59.1005787 1.375 62.4375 C-1.69265793 64.45569601 -3.36643853 64.27771481 -7 64 C-9.68218994 63.03312683 -9.68218994 63.03312683 -12.42285156 61.66088867 C-13.45702209 61.1500322 -14.49119263 60.63917572 -15.55670166 60.11283875 C-16.65689636 59.55353165 -17.75709106 58.99422455 -18.890625 58.41796875 C-20.60206696 57.56299553 -20.60206696 57.56299553 -22.3480835 56.69075012 C-24.7550135 55.4849472 -27.15906179 54.27479602 -29.55957031 53.05639648 C-32.6351529 51.49586766 -35.71932472 49.9533001 -38.80673599 48.41633129 C-41.75556937 46.94605885 -44.69790022 45.46292037 -47.640625 43.98046875 C-48.74891663 43.42723434 -49.85720825 42.87399994 -50.99908447 42.30400085 C-52.53142731 41.52353142 -52.53142731 41.52353142 -54.09472656 40.72729492 C-54.99596252 40.27206955 -55.89719849 39.81684418 -56.82574463 39.3478241 C-59 38 -59 38 -61 35 C-61.4375 32.125 -61.4375 32.125 -61 29 C-56.81443975 23.73656587 -51.22059571 21.22342592 -45.29296875 18.26171875 C-44.25360672 17.73608841 -43.21424469 17.21045807 -42.14338684 16.66889954 C-39.94964566 15.56377546 -37.75326404 14.46387923 -35.55444336 13.36889648 C-32.20022529 11.6938548 -28.86082548 9.99157754 -25.52148438 8.28710938 C-23.38365914 7.2144568 -21.24501323 6.14343796 -19.10546875 5.07421875 C-18.1125029 4.56493332 -17.11953705 4.05564789 -16.09648132 3.53092957 C-10.40759026 0.7332789 -6.3524346 -0.70291296 0 0 Z " fill="#040303" transform="translate(395,127)"/>
<path d="M0 0 C0 13.86 0 27.72 0 42 C-4.62 42.99 -9.24 43.98 -14 45 C-23.34573711 48.53598291 -33.60507081 54.01830302 -39.64453125 62.23828125 C-40.09183594 62.81964844 -40.53914063 63.40101563 -41 64 C-41.66 64 -42.32 64 -43 64 C-43 49.48 -43 34.96 -43 20 C-37.534375 17.256875 -32.06875 14.51375 -26.4375 11.6875 C-24.72618896 10.82729248 -23.01487793 9.96708496 -21.25170898 9.08081055 C-19.87491764 8.39095281 -18.4980508 7.7012457 -17.12109375 7.01171875 C-16.42278442 6.6600061 -15.7244751 6.30829346 -15.00500488 5.94592285 C-3.11524327 0 -3.11524327 0 0 0 Z " fill="#DCD8DC" transform="translate(117,331)"/>
<path d="M0 0 C6.02731922 4.29153648 10.63068056 10.37900737 13.25 17.3125 C13.12890625 19.8515625 13.12890625 19.8515625 12.25 22.3125 C10.0625 23.60546875 10.0625 23.60546875 7.25 24.5 C6.3425 24.80292969 5.435 25.10585938 4.5 25.41796875 C2.89125 25.86076172 2.89125 25.86076172 1.25 26.3125 C0.60361572 26.49127686 -0.04276855 26.67005371 -0.70874023 26.85424805 C-16.3107751 30.7807396 -34.02932369 29.82432732 -48.75 23.3125 C-49.74 22.6525 -50.73 21.9925 -51.75 21.3125 C-51.33891405 13.29632407 -46.12013161 7.35807572 -40.5625 2 C-28.47037364 -8.16469012 -13.16763215 -8.09467504 0 0 Z " fill="#F993CF" transform="translate(303.75,245.6875)"/>
<path d="M0 0 C3.83366567 1.20689475 4.53929433 1.58389795 6.375 5.0625 C6.67118788 8.10170447 6.79519789 10.93522961 6.77905273 13.97436523 C6.78591599 14.87399994 6.79277924 15.77363464 6.79985046 16.70053101 C6.81815092 19.6742125 6.81427627 22.64736803 6.80859375 25.62109375 C6.81315405 27.6884834 6.81845917 29.75587153 6.82447815 31.82325745 C6.83341569 36.15672971 6.83097884 40.49001775 6.82104492 44.82348633 C6.80955565 50.37656702 6.82976308 55.9290118 6.85896206 61.48200893 C6.87730928 65.75169412 6.87703451 70.02122652 6.87132454 74.29094124 C6.87117114 76.33826654 6.87723099 78.38560209 6.88961601 80.43288994 C6.90449576 83.29607897 6.89387094 86.1580881 6.87670898 89.02124023 C6.89121094 90.28927742 6.89121094 90.28927742 6.90600586 91.58293152 C6.85622406 95.54967169 6.6445723 97.6124685 4.56239319 101.08851624 C2.375 103.0625 2.375 103.0625 -1.125 103.6875 C-4.625 103.0625 -4.625 103.0625 -6.81040955 101.08752441 C-9.27817326 96.97362341 -9.19489492 93.74974047 -9.15844727 89.03710938 C-9.16706284 88.13732864 -9.17567841 87.23754791 -9.18455505 86.3105011 C-9.2072213 83.34212315 -9.20047534 80.3746887 -9.19140625 77.40625 C-9.19664127 75.34028849 -9.2029173 73.27432937 -9.21018982 71.20837402 C-9.22059505 66.88082625 -9.21603026 62.55360728 -9.20141602 58.22607422 C-9.18422192 52.68072543 -9.20773094 47.13641215 -9.24290562 41.59117889 C-9.26486594 37.32575618 -9.26344151 33.06058181 -9.2551403 28.79512024 C-9.25432016 26.75058353 -9.26119559 24.70602871 -9.27591133 22.6615448 C-9.29333325 19.80301228 -9.27883476 16.94634798 -9.25610352 14.08789062 C-9.26779572 13.24410355 -9.27948792 12.40031647 -9.29153442 11.53096008 C-9.22216016 7.24281327 -8.98143473 5.5340999 -6.31211853 2.00231934 C-3.625 0.0625 -3.625 0.0625 0 0 Z " fill="#010101" transform="translate(96.625,60.9375)"/>
<path d="M0 0 C0 13.53 0 27.06 0 41 C-5.63898213 43.85389064 -11.27954042 46.70404986 -16.92504883 49.54492188 C-18.84573414 50.51281605 -20.7653378 51.48285973 -22.68383789 52.45507812 C-25.4387633 53.85069813 -28.19746316 55.23858741 -30.95703125 56.625 C-31.81649857 57.06247559 -32.67596588 57.49995117 -33.56147766 57.95068359 C-34.36208115 58.35109863 -35.16268463 58.75151367 -35.98754883 59.1640625 C-36.6914827 59.51936035 -37.39541656 59.8746582 -38.12068176 60.24072266 C-40 61 -40 61 -43 61 C-44.63020562 41.88395813 -44.63020562 41.88395813 -41.0546875 35.55859375 C-38.50656251 33.06891199 -35.9264397 31.02631876 -33 29 C-31.58963389 27.78753606 -30.19238334 26.55954585 -28.8125 25.3125 C-27.84763672 24.48685547 -27.84763672 24.48685547 -26.86328125 23.64453125 C-24.38369142 21.4560463 -22.0937882 19.10455987 -19.77734375 16.74609375 C-17.30884013 14.32099239 -14.68429383 12.09581245 -12.05859375 9.84375 C-9.11309409 7.20565543 -6.39038568 4.3660025 -3.6640625 1.50390625 C-2 0 -2 0 0 0 Z " fill="#1FBBD0" transform="translate(117,194)"/>
<path d="M0 0 C0 20.46 0 40.92 0 62 C-19 71 -19 71 -21 71 C-21 50.54 -21 30.08 -21 9 C-3 0 -3 0 0 0 Z " fill="#D2ADE6" transform="translate(95,263)"/>
<path d="M0 0 C0.69656204 -0.00394272 1.39312408 -0.00788544 2.11079407 -0.01194763 C4.40264904 -0.01863549 6.69249063 0.01045131 8.98413086 0.04077148 C10.58165603 0.04502412 12.17918738 0.04735044 13.77671814 0.0478363 C17.11998626 0.05399424 20.46258242 0.07665821 23.80566406 0.11230469 C28.08860838 0.15761338 32.37094524 0.17233307 36.65410709 0.1760416 C39.95098344 0.18047238 43.24773264 0.19577947 46.54455376 0.21491814 C48.1237833 0.22378954 49.70302635 0.23052477 51.28227425 0.23507881 C53.48919544 0.24413314 55.69557087 0.26653258 57.90234375 0.29296875 C59.15745255 0.30360855 60.41256134 0.31424835 61.70570374 0.32521057 C64.73844605 0.58660647 66.40870137 0.88487253 68.88647461 2.59936523 C70.88647461 5.59936523 70.88647461 5.59936523 70.76147461 9.09936523 C69.88647461 12.59936523 69.88647461 12.59936523 68.28076172 14.29286194 C64.98819127 16.08953625 62.44721796 15.98777964 58.70288086 16.00341797 C57.9869577 16.01028122 57.27103455 16.01714447 56.53341675 16.0242157 C54.17173315 16.04248681 51.81071357 16.03864643 49.44897461 16.03295898 C47.80517358 16.03752029 46.16137447 16.04282571 44.51757812 16.04884338 C41.07438402 16.05777479 37.63142186 16.05535069 34.18823242 16.04541016 C29.77617248 16.03391353 25.36491205 16.05414182 20.95295715 16.08332729 C17.5591524 16.10167321 14.16553989 16.10140021 10.771698 16.09568977 C9.14499794 16.0955364 7.51828498 16.1015943 5.89163208 16.11398125 C3.61726693 16.12886188 1.34438705 16.11823822 -0.92993164 16.10107422 C-2.87041382 16.10082497 -2.87041382 16.10082497 -4.85009766 16.10057068 C-8.66257998 15.51504005 -9.85059086 14.66986559 -12.11352539 11.59936523 C-12.67602539 8.66186523 -12.67602539 8.66186523 -12.11352539 5.59936523 C-8.37626062 0.85494543 -5.96445752 -0.02408118 0 0 Z " fill="#050404" transform="translate(163.113525390625,339.400634765625)"/>
<path d="M0 0 C39.71291109 -0.02286817 79.42582132 -0.04049914 119.13873767 -0.05106533 C123.82279778 -0.0523161 128.50685788 -0.05361041 133.19091797 -0.05493164 C134.12346516 -0.05519395 135.05601234 -0.05545626 136.01681854 -0.05572652 C151.13420827 -0.06008275 166.25159422 -0.06797004 181.3689817 -0.0771528 C196.87050123 -0.08649064 212.37201877 -0.09205589 227.873541 -0.09408849 C237.4456802 -0.09546345 247.0178087 -0.09981256 256.58994462 -0.10791647 C263.14595498 -0.11318554 269.70195978 -0.11480392 276.25797211 -0.11350138 C280.04547559 -0.11285825 283.83296032 -0.11387266 287.62046051 -0.11920547 C291.71857425 -0.12493378 295.8166476 -0.12299914 299.9147644 -0.12025452 C301.12291459 -0.12316736 302.33106477 -0.1260802 303.57582557 -0.12908131 C305.21202785 -0.12609474 305.21202785 -0.12609474 306.88128471 -0.12304783 C307.82830722 -0.12342755 308.77532972 -0.12380727 309.75104988 -0.1241985 C312 0 312 0 314 1 C314.02683987 3.97922593 314.04676037 6.95821295 314.0625 9.9375 C314.07087891 10.78763672 314.07925781 11.63777344 314.08789062 12.51367188 C314.09272461 13.72700195 314.09272461 13.72700195 314.09765625 14.96484375 C314.10551147 16.08814087 314.10551147 16.08814087 314.11352539 17.23413086 C314 19 314 19 313 20 C310.6243148 20.0883967 308.27791326 20.11530305 305.90234375 20.09765625 C304.83905602 20.09553383 304.83905602 20.09553383 303.75428772 20.09336853 C301.48198288 20.08775443 299.20977525 20.07519963 296.9375 20.0625 C295.40039204 20.05748681 293.86328255 20.05292359 292.32617188 20.04882812 C288.55071333 20.0386297 284.77546596 20.01905732 281 20 C281 13.73 281 7.46 281 1 C188.27 1 95.54 1 0 1 C0 0.67 0 0.34 0 0 Z " fill="#25B9CC" transform="translate(124,477)"/>
<path d="M0 0 C0.34895615 5.08555651 0.60126299 10.16403004 0.76904297 15.25878906 C0.83900589 16.98626074 0.93423531 18.71291616 1.05615234 20.4375 C2.01893735 34.4181092 2.01893735 34.4181092 -1.33874512 38.71203613 C-4.65980648 41.71300107 -8.3760835 43.7679937 -12.29681396 45.87554932 C-15.13057878 47.74641293 -16.90294712 50.35498772 -19 53 C-19.66 53 -20.32 53 -21 53 C-21 38.48 -21 23.96 -21 9 C-3 0 -3 0 0 0 Z " fill="#EBE8EB" transform="translate(95,342)"/>
<path d="M0 0 C2.19335938 1.47290039 2.19335938 1.47290039 4 4 C4.39778261 7.03947197 4.56136273 9.70858449 4.53125 12.74609375 C4.5350769 13.59422134 4.53890381 14.44234894 4.54284668 15.31617737 C4.54556486 17.10736276 4.53821019 18.89858791 4.52148438 20.68969727 C4.50009854 23.42489644 4.52127405 26.15746123 4.546875 28.89257812 C4.54423119 30.63542244 4.5391051 32.37826513 4.53125 34.12109375 C4.53934692 34.9358165 4.54744385 35.75053925 4.55578613 36.58995056 C4.49116755 40.52345195 4.25584277 42.57420356 2.18554688 46.01977539 C0 48 0 48 -3.5 48.5625 C-7.56615114 47.90901142 -8.50538948 47.18268589 -11 44 C-11.45410156 41.43457031 -11.45410156 41.43457031 -11.390625 38.578125 C-11.37773437 37.55332031 -11.36484375 36.52851563 -11.3515625 35.47265625 C-11.31804687 34.40917969 -11.28453125 33.34570312 -11.25 32.25 C-11.23195313 31.17105469 -11.21390625 30.09210938 -11.1953125 28.98046875 C-11.14821415 26.31941212 -11.082456 23.66015746 -11 21 C-11.804375 20.690625 -12.60875 20.38125 -13.4375 20.0625 C-16 19 -16 19 -17 18 C-17.66462638 14.86871901 -17.69954765 12.12595069 -17 9 C-12.30032257 2.58745609 -8.07030814 -0.69571622 0 0 Z " fill="#020102" transform="translate(408,286)"/>
<path d="M0 0 C16.65457669 -0.0466746 33.30913223 -0.08196651 49.96375847 -0.10362434 C57.69640155 -0.11394673 65.42900405 -0.12802538 73.16162109 -0.15087891 C79.89961591 -0.1707834 86.63758135 -0.18370943 93.37560475 -0.18817699 C96.94492741 -0.19078938 100.51416599 -0.19694944 104.08346176 -0.21146011 C108.06330722 -0.22750932 112.04306963 -0.22798158 116.02294922 -0.22705078 C117.2126532 -0.23424133 118.40235718 -0.24143188 119.62811279 -0.24884033 C121.24775436 -0.24471634 121.24775436 -0.24471634 122.90011597 -0.24050903 C123.8421884 -0.24235262 124.78426083 -0.24419621 125.75488091 -0.24609566 C128 0 128 0 130 2 C130.17179052 4.89132177 130.2322947 7.67442065 130.1875 10.5625 C130.1865332 11.75262695 130.1865332 11.75262695 130.18554688 12.96679688 C130.14025522 18.85974478 130.14025522 18.85974478 129 20 C126.6243148 20.0883967 124.27791326 20.11530305 121.90234375 20.09765625 C120.83905602 20.09553383 120.83905602 20.09553383 119.75428772 20.09336853 C117.48198288 20.08775443 115.20977525 20.07519963 112.9375 20.0625 C111.40039204 20.05748681 109.86328255 20.05292359 108.32617188 20.04882812 C104.55071333 20.0386297 100.77546596 20.01905732 97 20 C97 13.73 97 7.46 97 1 C64.99 1 32.98 1 0 1 C0 0.67 0 0.34 0 0 Z " fill="#21BACF" transform="translate(308,387)"/>
<path d="M0 0 C0 0.33 0 0.66 0 1 C-26.07 1 -52.14 1 -79 1 C-56.0668398 -17.34652816 -24.01648324 -13.54971162 0 0 Z " fill="#ECE9EC" transform="translate(324,202)"/>
<path d="M0 0 C0.67293091 -0.0038269 1.34586182 -0.00765381 2.03918457 -0.01159668 C3.4579417 -0.0143113 4.87674927 -0.00698134 6.29541016 0.00976562 C8.46240203 0.03118725 10.62607951 0.00995462 12.79296875 -0.015625 C14.17448646 -0.01298164 15.5560021 -0.00785647 16.9375 0 C18.18982422 0.00451172 19.44214844 0.00902344 20.73242188 0.01367188 C24.5187942 0.61921724 25.71788498 1.4774934 27.96875 4.53125 C28.47222322 7.98363782 28.38431154 9.79907014 26.65625 12.84375 C22.16294279 17.33705721 13.98531175 15.84137795 8.09375 15.90625 C6.81371094 15.94363281 5.53367188 15.98101562 4.21484375 16.01953125 C-6.30180677 16.11843392 -6.30180677 16.11843392 -9.37890625 13.19921875 C-11.40300953 9.9309858 -11.75410555 8.30616233 -11.03125 4.53125 C-7.82378634 0.20882958 -5.23193263 0.01884896 0 0 Z " fill="#060505" transform="translate(162.03125,313.46875)"/>
<path d="M0 0 C0 9.9 0 19.8 0 30 C-4.1146875 32.2275 -4.1146875 32.2275 -8.3125 34.5 C-9.17270752 34.96986328 -10.03291504 35.43972656 -10.91918945 35.92382812 C-11.60198975 36.28927734 -12.28479004 36.65472656 -12.98828125 37.03125 C-14.03302612 37.59682617 -14.03302612 37.59682617 -15.09887695 38.17382812 C-17 39 -17 39 -20 39 C-21.63020562 19.88395813 -21.63020562 19.88395813 -18.0546875 13.55859375 C-15.5069711 11.06931121 -12.91890845 9.03577279 -10 7 C-8.48725859 5.63903034 -6.98586279 4.265265 -5.5 2.875 C-2.26728111 0 -2.26728111 0 0 0 Z " fill="#38CBDA" transform="translate(94,216)"/>
<path d="M0 0 C1.07185547 -0.02384766 2.14371094 -0.04769531 3.24804688 -0.07226562 C12.02167995 -0.05596785 12.02167995 -0.05596785 15.80859375 2.87109375 C18.0625 5.5625 18.0625 5.5625 18.1875 9.1875 C16.94197169 12.92408493 16.38722268 13.66059211 13.0625 15.5625 C8.75234731 16.18954841 4.41334634 16.02595407 0.0625 16 C-1.12601562 16.01998047 -2.31453125 16.03996094 -3.5390625 16.06054688 C-4.68117188 16.05990234 -5.82328125 16.05925781 -7 16.05859375 C-8.04285156 16.06044678 -9.08570313 16.0622998 -10.16015625 16.06420898 C-13.64269297 15.4351115 -14.81625583 14.3513012 -16.9375 11.5625 C-17.5 8.0625 -17.5 8.0625 -16.9375 4.5625 C-12.47229424 -0.88739087 -6.47412001 -0.0659437 0 0 Z " fill="#030204" transform="translate(400.9375,342.4375)"/>
<path d="M0 0 C11.10623123 -0.63801754 20.40624815 1.67390886 29 9 C33.0099805 13.38646339 38.1460027 19.36116348 37.8984375 25.53125 C37 28 37 28 34.63671875 29.36328125 C33.66347656 29.67652344 32.69023437 29.98976563 31.6875 30.3125 C30.23923828 30.80169922 30.23923828 30.80169922 28.76171875 31.30078125 C26 32 26 32 22 32 C21.91363281 31.23816406 21.82726562 30.47632813 21.73828125 29.69140625 C20.24888588 18.74639988 16.14311571 10.74678566 8.0625 3.1875 C5.4242014 1.66847959 3.00239085 1.34118078 0 1 C0 0.67 0 0.34 0 0 Z " fill="#F573BF" transform="translate(279,240)"/>
<path d="M0 0 C2 1.625 2 1.625 3 4 C2.7838408 9.83629832 1.21116391 14.63634203 -2.8125 18.9375 C-5.917056 20.4454272 -7.74070943 19.97085251 -11 19 C-12.875 17.9375 -12.875 17.9375 -14 16 C-14.55129167 10.39520137 -14.14879783 6.83565381 -11 2 C-7.5903867 -1.77492901 -4.72836366 -1.28955373 0 0 Z " fill="#090709" transform="translate(384,204)"/>
<path d="M0 0 C2 1.625 2 1.625 3 4 C2.7838408 9.83629832 1.21116391 14.63634203 -2.8125 18.9375 C-5.917056 20.4454272 -7.74070943 19.97085251 -11 19 C-12.875 17.9375 -12.875 17.9375 -14 16 C-14.82773155 9.89547985 -13.68270308 6.63702127 -10.2890625 1.56640625 C-7.31795534 -2.04393912 -4.21134205 -0.96048152 0 0 Z " fill="#090708" transform="translate(197,204)"/>
<path d="M0 0 C2 1.625 2 1.625 3 4 C2.78391107 9.83440112 1.17607013 14.82392987 -3 19 C-9.90410959 19.54794521 -9.90410959 19.54794521 -13 18 C-14.63169305 14.73661389 -14.49380675 11.52337786 -14 8 C-11.17574008 0.51571122 -8.00400141 -2.18290948 0 0 Z " fill="#070507" transform="translate(407,204)"/>
<path d="M0 0 C2 1.625 2 1.625 3 4 C2.78391107 9.83440112 1.17607013 14.82392987 -3 19 C-9.90410959 19.54794521 -9.90410959 19.54794521 -13 18 C-14.66222439 14.67555123 -14.69528355 11.56490839 -14 8 C-10.61082817 0.71955682 -8.26759557 -1.88559197 0 0 Z " fill="#070606" transform="translate(174,204)"/>
<path d="M0 0 C2.39073445 3.82517513 2.55966552 7.59665524 3 12 C1.35 12 -0.3 12 -2 12 C-1 3.42857143 -1 3.42857143 0 0 Z " fill="#E7BAD5" transform="translate(394,68)"/>
<path d="M0 0 C2.02350324 3.03525486 2.32124018 4.19426202 2.625 7.6875 C2.69976562 8.49574219 2.77453125 9.30398437 2.8515625 10.13671875 C2.92503906 11.05904297 2.92503906 11.05904297 3 12 C1.35 12 -0.3 12 -2 12 C-1 3.42857143 -1 3.42857143 0 0 Z " fill="#EDC0DB" transform="translate(242,68)"/>
</svg>
