<?xml version="1.0" encoding="UTF-8"?>
<svg version="1.1" xmlns="http://www.w3.org/2000/svg" width="204" height="204">
<path d="M0 0 C1.010625 0.28875 2.02125 0.5775 3.0625 0.875 C3.921875 4.0078125 3.921875 4.0078125 4.0625 7.875 C2.17105928 10.27374767 0.62805129 11.85731066 -1.6875 13.75 C-2.58178711 14.52633789 -2.58178711 14.52633789 -3.49414062 15.31835938 C-5.28805138 16.86391188 -7.10586725 18.37444658 -8.9375 19.875 C-9.88109375 20.65101562 -10.8246875 21.42703125 -11.796875 22.2265625 C-13.56797852 23.66754909 -15.34410005 25.10238841 -17.125 26.53125 C-20.33599934 29.20708278 -23.38777636 32.01859707 -26.4375 34.875 C-31.18826968 39.32426645 -36.07955556 43.49687934 -41.16015625 47.5703125 C-44.88755289 50.66337019 -48.43404831 53.93440395 -51.96704102 57.24633789 C-54.21750926 59.34715668 -56.36645036 61.16096691 -58.9375 62.875 C-58.47037093 67.41961162 -57.08328221 69.09879355 -53.625 72 C-52.72394531 72.7734375 -51.82289062 73.546875 -50.89453125 74.34375 C-49.91871094 75.1790625 -48.94289063 76.014375 -47.9375 76.875 C-45.88017663 78.73314217 -43.84666457 80.61657406 -41.8125 82.5 C-38.57642644 85.47834669 -35.32608875 88.43455795 -32 91.3125 C-28.4079131 94.42464209 -24.92199863 97.6437396 -21.4375 100.875 C-17.9314203 104.12598338 -14.42322135 107.36476459 -10.8125 110.5 C-10.21308594 111.02851563 -9.61367187 111.55703125 -8.99609375 112.1015625 C-7.3470123 113.52221331 -5.66489799 114.90448305 -3.97265625 116.2734375 C-2.93964359 117.1400763 -1.90708959 118.00726211 -0.875 118.875 C0.08535156 119.65875 1.04570312 120.4425 2.03515625 121.25 C4.0625 123.875 4.0625 123.875 3.87109375 127.6875 C3.60425781 128.739375 3.33742188 129.79125 3.0625 130.875 C0.33463589 131.76397543 -1.14430871 132.19937904 -3.9375 131.875 C-7.17200062 129.80887864 -9.71494869 127.12363987 -12.375 124.375 C-13.80989056 122.94660216 -15.24608254 121.51951044 -16.68359375 120.09375 C-17.3885498 119.38541016 -18.09350586 118.67707031 -18.81982422 117.94726562 C-21.48072969 115.343419 -24.26197383 112.90711827 -27.08227539 110.47851562 C-29.755531 108.16795597 -32.34219015 105.77284062 -34.9375 103.375 C-38.2153141 100.35495128 -41.50333268 97.35295863 -44.875 94.4375 C-49.07662647 90.7984344 -53.13746587 87.01106318 -57.20605469 83.22485352 C-60.11708522 80.52389294 -63.05636403 77.89795802 -66.125 75.375 C-69.68802819 72.20786383 -70.77827272 70.28150768 -71.3125 65.5625 C-70.73012972 59.83585895 -68.88515878 56.61711002 -64.6796875 52.85546875 C-62.821631 51.35223062 -60.94944214 49.86635824 -59.06640625 48.39453125 C-55.68905709 45.72955003 -52.56854901 42.82195169 -49.4375 39.875 C-45.54274939 36.22513749 -41.6040395 32.71792123 -37.4375 29.375 C-32.04243217 25.04319371 -27.00517737 20.3878352 -21.94921875 15.671875 C-18.92364067 12.85114885 -15.8494394 10.09538238 -12.69921875 7.4140625 C-11.47681734 6.34615528 -10.29353894 5.23244191 -9.14453125 4.0859375 C-4.76230263 -0.15118421 -4.76230263 -0.15118421 0 0 Z " fill="#FFFFFF" transform="translate(137.9375,40.125)"/>
</svg>
