<?xml version="1.0" encoding="UTF-8"?>
<svg version="1.1" xmlns="http://www.w3.org/2000/svg" width="256" height="256">
<path d="M0 0 C1.58952308 -0.00571207 3.17904207 -0.01267956 4.76855469 -0.02079773 C9.05994635 -0.03865135 13.35113267 -0.03757559 17.64255023 -0.03185534 C21.23581459 -0.02875231 24.82904015 -0.03486825 28.42229897 -0.04089409 C36.90412446 -0.05491196 45.38584917 -0.05340075 53.86767578 -0.04199219 C62.59510554 -0.03051213 71.32222795 -0.04459097 80.04961723 -0.07138866 C87.56502479 -0.09359423 95.08033622 -0.10017217 102.59577423 -0.09431225 C107.07462529 -0.09095326 111.55327936 -0.0932871 116.03210258 -0.11056328 C120.24546854 -0.1261082 124.45838149 -0.12199396 128.67173004 -0.10325813 C130.21033458 -0.0995931 131.74897325 -0.10261929 133.28754616 -0.11314392 C148.40484087 -0.20859179 161.06311511 3.64040635 172.32641602 14.09155273 C180.97791066 23.24990262 185.67730139 35.20149054 185.51391602 47.71655273 C185.50561768 48.54541992 185.49731934 49.37428711 185.48876953 50.22827148 C185.11149233 64.01970011 179.32889461 75.62770176 169.45141602 85.21655273 C160.0363462 93.25979489 149.85303465 96.58228904 137.76391602 96.59155273 C136.9344043 96.60379883 136.10489258 96.61604492 135.25024414 96.62866211 C134.43362305 96.6305957 133.61700195 96.6325293 132.77563477 96.63452148 C132.04175537 96.63863037 131.30787598 96.64273926 130.55175781 96.64697266 C127.25824948 96.32376122 124.24486093 95.33680862 121.07641602 94.40405273 C121.08010319 95.17581376 121.08379036 95.94757479 121.08758926 96.74272251 C121.17596576 115.53018539 121.24213802 134.31760673 121.2836647 153.10523319 C121.30428101 162.19083692 121.33238377 171.2763018 121.37817383 180.36181641 C121.41807015 188.28169757 121.4438556 196.20147817 121.45276999 204.12145704 C121.45798003 208.31421734 121.47020593 212.50668997 121.49933624 216.69935799 C121.52654964 220.64823914 121.53484915 224.59671498 121.52884674 228.545681 C121.52994434 229.99245216 121.53786321 231.43923732 121.55323792 232.8859272 C121.69155609 246.57617584 121.69155609 246.57617584 117.07641602 252.40405273 C112.52847541 255.95144641 108.68242248 257.25234261 102.89672852 256.95874023 C96.75401981 255.75061747 91.46408232 252.45714428 86.07641602 249.40405273 C85.28138672 248.95868164 84.48635742 248.51331055 83.66723633 248.05444336 C75.51839526 243.48862768 67.37939143 238.90272768 59.29907227 234.21655273 C56.02593063 232.31838692 52.7418875 230.44035214 49.45095825 228.57321167 C48.16615807 227.83918761 46.88553313 227.09780357 45.60934448 226.34890747 C43.81559211 225.2974076 42.00897211 224.27231213 40.19750977 223.25170898 C39.16037842 222.65366455 38.12324707 222.05562012 37.0546875 221.43945312 C33.2066562 220.10167948 31.73381586 220.72162493 28.07641602 222.40405273 C26.05877319 223.41312764 24.06603727 224.47299461 22.09594727 225.57202148 C20.94425049 226.21115479 19.79255371 226.85028809 18.60595703 227.50878906 C17.36690578 228.20297655 16.127893 228.89723271 14.88891602 229.59155273 C13.60655332 230.30517428 12.32391574 231.01830207 11.04101562 231.73095703 C7.71506257 233.57993175 4.39230665 235.43457353 1.0703125 237.29064941 C-3.98448993 240.11328031 -9.04488723 242.92587049 -14.10488892 245.73916626 C-15.82616179 246.69711726 -17.54615138 247.65737297 -19.26611328 248.61767578 C-20.31710205 249.20331299 -21.36809082 249.7889502 -22.45092773 250.39233398 C-23.36608154 250.90320557 -24.28123535 251.41407715 -25.22412109 251.94042969 C-31.86208337 255.53946956 -36.3420966 257.46137586 -43.92358398 256.40405273 C-48.85592647 254.83169308 -51.6517419 251.93579112 -54.10954106 247.40494025 C-55.53215885 243.90819814 -55.47108042 240.54083432 -55.42478943 236.80900574 C-55.43032383 235.96886864 -55.43585822 235.12873153 -55.44156033 234.26313573 C-55.45512264 231.46108869 -55.44022163 228.65993924 -55.42529297 225.85791016 C-55.42907784 223.84356814 -55.43457926 221.82922873 -55.44166565 219.81489563 C-55.45561823 214.35189217 -55.44445048 208.88920374 -55.42795444 203.42621779 C-55.41408964 197.70270661 -55.42056587 191.97921345 -55.42408752 186.25569153 C-55.42678916 176.64127538 -55.41332018 167.02698409 -55.39013672 157.41259766 C-55.36355004 146.31030016 -55.3617729 135.20821172 -55.37352508 124.10589331 C-55.38432136 113.41381808 -55.37809979 102.72181818 -55.3639698 92.02974892 C-55.35822378 87.48573327 -55.35828186 82.94177301 -55.3630352 78.39775658 C-55.36782313 73.04033854 -55.35762812 67.68314804 -55.33608055 62.32577324 C-55.33053638 60.36426816 -55.3300255 58.40274111 -55.33503342 56.44123459 C-55.37416796 38.90831297 -52.89816288 25.99972006 -40.50952148 12.76733398 C-28.59366235 1.87746273 -15.49473004 -0.0505473 0 0 Z M-18.07983398 37.05249023 C-18.52327148 37.62225586 -18.96670898 38.19202148 -19.42358398 38.77905273 C-19.88764648 39.34366211 -20.35170898 39.90827148 -20.82983398 40.48999023 C-23.26774354 44.75633196 -23.04748634 49.47246148 -23.0438385 54.2693634 C-23.04469293 54.94742167 -23.04554735 55.62547993 -23.04642767 56.32408541 C-23.04807055 58.58880545 -23.04258066 60.85345089 -23.03710938 63.11816406 C-23.03682722 64.74449665 -23.03698579 66.37082936 -23.03755188 67.99716187 C-23.03783875 72.40789331 -23.03195981 76.81859755 -23.02497792 81.22932267 C-23.01872606 85.84043633 -23.01813913 90.45155061 -23.01695251 95.06266785 C-23.01384461 103.79254329 -23.0056385 112.5224062 -22.99560302 121.25227612 C-22.98442511 131.19174176 -22.9789272 141.131208 -22.97390759 151.07067835 C-22.96345545 171.51514347 -22.94586646 191.95959731 -22.92358398 212.40405273 C-19.41780903 211.02675711 -16.12818901 209.51761776 -12.81811523 207.71655273 C-11.84261719 207.18715088 -10.86711914 206.65774902 -9.86206055 206.11230469 C-8.83048828 205.54858154 -7.79891602 204.9848584 -6.73608398 204.40405273 C-5.67486328 203.82679443 -4.61364258 203.24953613 -3.52026367 202.65478516 C3.85622712 198.63562865 11.21192235 194.57954203 18.54199219 190.47631836 C20.38356503 189.44642363 22.22970796 188.42471088 24.07641602 187.40405273 C24.80860352 186.99799805 25.54079102 186.59194336 26.29516602 186.17358398 C31.45981322 183.94236579 36.35373927 184.72961787 41.47875977 186.73608398 C45.77963823 188.77059045 49.93026736 191.0739652 54.07641602 193.40405273 C54.99310059 193.91822754 55.90978516 194.43240234 56.85424805 194.9621582 C60.79630922 197.17993528 64.73597509 199.40087519 68.65527344 201.65869141 C73.51589409 204.45027273 78.40732527 207.10825039 83.42895508 209.60083008 C84.49180725 210.12929535 85.55465942 210.65776062 86.64971924 211.20223999 C87.45052917 211.5988382 88.25133911 211.9954364 89.07641602 212.40405273 C89.12314922 191.01163001 89.15841135 169.61921571 89.18004036 148.22675228 C89.19035028 138.29372895 89.20440521 128.36073734 89.22729492 118.42773438 C89.24723746 109.76952597 89.26013452 101.11134054 89.26459301 92.4531098 C89.26719891 87.86920773 89.27331808 83.28537139 89.28787613 78.7014904 C89.30147366 74.38498406 89.30563426 70.06857041 89.30263138 65.75204468 C89.30318057 64.169836 89.30714507 62.58762416 89.31482697 61.00543404 C89.32482231 58.84013403 89.32236836 56.67518099 89.31692505 54.50987244 C89.31969043 52.69440115 89.31969043 52.69440115 89.32251167 50.84225368 C88.98782353 46.16632769 88.3030967 41.94569197 85.34204102 38.22436523 C84.67688477 37.66491211 84.01172852 37.10545898 83.32641602 36.52905273 C82.34415039 35.66666992 82.34415039 35.66666992 81.34204102 34.78686523 C76.51075706 31.83811606 70.70375931 32.25156564 65.19433594 32.24291992 C64.42763077 32.23795502 63.6609256 32.23299011 62.87098694 32.22787476 C60.34961022 32.21334151 57.82829639 32.20646621 55.30688477 32.20092773 C54.00808097 32.19668667 54.00808097 32.19668667 52.68303871 32.19235992 C48.10151492 32.17740353 43.52002234 32.16815148 38.93847656 32.16381836 C34.22447098 32.15833684 29.51075468 32.13430538 24.79683971 32.10584641 C21.15496504 32.0871541 17.51315919 32.08201094 13.87124062 32.08048248 C12.13423391 32.07747066 10.39722798 32.06949224 8.66026878 32.0562973 C-5.45296896 31.56716523 -5.45296896 31.56716523 -18.07983398 37.05249023 Z M121.07641602 32.40405273 C120.16286711 47.41320723 120.16286711 47.41320723 126.70141602 60.34155273 C130.78988407 62.84006099 134.27327949 64.19412544 139.07641602 64.40405273 C145.0743674 62.87914984 148.87903981 59.5971067 152.07641602 54.40405273 C153.56174093 49.20541553 153.27976033 45.339544 151.07641602 40.40405273 C146.89906992 35.60536225 143.50528395 33.01302224 137.07641602 32.40405273 C134.28246176 32.30476117 131.49664293 32.30869745 128.70141602 32.34155273 C127.59733398 32.34832031 127.59733398 32.34832031 126.47094727 32.35522461 C124.67273443 32.36690132 122.87456404 32.38483262 121.07641602 32.40405273 Z " fill="#FFFFFF" transform="translate(62.923583984375,-0.404052734375)"/>
</svg>
