<?xml version="1.0" encoding="UTF-8"?>
<svg version="1.1" xmlns="http://www.w3.org/2000/svg" width="256" height="256">
<path d="M0 0 C0.77085938 0.05542969 1.54171875 0.11085938 2.3359375 0.16796875 C5.43113622 1.03948375 6.54448416 2.36307793 8.625 4.8125 C9.94570923 7.78355408 9.94570923 7.78355408 11.15087891 11.40991211 C11.38336712 12.09796747 11.61585533 12.78602283 11.85538864 13.49492836 C12.65710757 15.87709478 13.44147623 18.26464804 14.2265625 20.65234375 C14.82079291 22.42964926 15.41619197 24.20656435 16.01260376 25.98313904 C17.40596777 30.13980974 18.79198033 34.29885741 20.17443848 38.45916748 C22.68249789 45.99751583 25.21839826 53.52635791 27.75675154 61.05454373 C33.09900811 76.89877022 38.41850368 92.7505149 43.72219467 108.60769081 C46.97447188 118.33057808 50.23468254 128.05073161 53.50476205 137.76764637 C55.83609809 144.69738906 58.15826917 151.63016193 60.47370398 158.56523365 C61.84574475 162.67383464 63.22176064 166.78099816 64.6079216 170.88485909 C65.90062642 174.71254716 67.18193684 178.54386098 68.45463371 182.37824631 C68.92130056 183.77764461 69.39205052 185.17568924 69.86726952 186.5722065 C74.44164499 200.02922269 74.44164499 200.02922269 73.625 206.8125 C71.70196166 210.22434222 70.28440323 212.24208014 66.5 213.54296875 C62.38097288 214.24570817 60.42661008 214.24847376 56.65063477 212.19482422 C53.0742309 209.37883544 52.28867768 207.59107852 50.8359375 203.3125 C50.59910248 202.6323584 50.36226746 201.9522168 50.11825562 201.25146484 C49.26524577 198.77877504 48.4458911 196.296033 47.625 193.8125 C46.9064542 191.68970413 46.18664522 189.56733556 45.46582031 187.4453125 C43.03082732 180.24404794 40.63915972 173.02912808 38.25 165.8125 C35.40375 157.2325 32.5575 148.6525 29.625 139.8125 C9.165 139.4825 -11.295 139.1525 -32.375 138.8125 C-33.035 141.7825 -33.695 144.7525 -34.375 147.8125 C-34.97669797 149.8757633 -35.61026581 151.93013494 -36.28271484 153.97143555 C-36.6500473 155.09257248 -37.01737976 156.21370941 -37.39584351 157.36882019 C-37.98494003 159.14111748 -37.98494003 159.14111748 -38.5859375 160.94921875 C-38.99534576 162.18742874 -39.40475403 163.42563873 -39.8265686 164.70137024 C-40.68914461 167.30694475 -41.55535995 169.91127645 -42.42382812 172.51489258 C-43.53130635 175.83702139 -44.62630106 179.16312046 -45.71822166 182.49038982 C-46.77016208 185.6877127 -47.83510474 188.88066674 -48.8984375 192.07421875 C-49.28712006 193.26182297 -49.67580261 194.44942719 -50.07626343 195.67301941 C-54.3663263 208.43723129 -54.3663263 208.43723129 -59.75 212.6875 C-62.97664126 214.07034626 -64.89186382 214.31009088 -68.375 213.8125 C-71.62471312 212.12514895 -73.75876164 210.68550434 -75.875 207.6875 C-77.60426193 197.74424388 -71.55286275 185.73817214 -68.4440918 176.40698242 C-67.830761 174.5517289 -67.21790965 172.69631682 -66.60549927 170.84075928 C-64.94805621 165.82472891 -63.28283776 160.81131473 -61.61533713 155.79861999 C-60.57317186 152.66482075 -59.53256384 149.53050875 -58.49247169 146.39602089 C-54.86219188 135.45627764 -51.22509902 124.5188243 -47.58227539 113.58325195 C-44.18846433 103.3945342 -40.81047761 93.20066164 -37.43957585 83.00434417 C-34.5414107 74.24050308 -31.63173609 65.48053836 -28.71317798 56.72346765 C-26.97160088 51.49715002 -25.2348405 46.26934947 -23.5098629 41.03752708 C-21.88884532 36.12221086 -20.25358461 31.21186723 -18.60724258 26.30497742 C-18.00582645 24.5043645 -17.40953091 22.7020319 -16.81876183 20.89789772 C-16.0111612 18.43427972 -15.18527037 15.97754944 -14.35453796 13.52165222 C-14.12533667 12.8076484 -13.89613537 12.09364457 -13.65998858 11.35800427 C-11.3142854 4.55093868 -7.54291385 -0.66407713 0 0 Z M-1.375 46.8125 C-11.12475426 75.26011122 -11.12475426 75.26011122 -20.75 103.75 C-21.12439209 104.86028564 -21.49878418 105.97057129 -21.88452148 107.11450195 C-22.21911377 108.11698975 -22.55370605 109.11947754 -22.8984375 110.15234375 C-23.330354 111.44192993 -23.330354 111.44192993 -23.77099609 112.75756836 C-24.4689999 114.77532814 -24.4689999 114.77532814 -24.375 116.8125 C-8.865 116.8125 6.645 116.8125 22.625 116.8125 C15.07106685 93.43974214 7.43785376 70.09973962 -0.375 46.8125 C-0.705 46.8125 -1.035 46.8125 -1.375 46.8125 Z " fill="#FFFFFF" transform="translate(86.375,21.1875)"/>
<path d="M0 0 C0.845625 -0.825 1.69125 -1.65 2.5625 -2.5 C5.16548836 -4.66097147 6.02490382 -5.00349527 9.5625 -5.5 C13.30591356 -4.95550348 15.13699641 -4.4653642 18 -2 C21.03487381 3.66303499 21.43202531 8.32503747 21.38818359 14.6796875 C21.39344055 15.62531555 21.39869751 16.5709436 21.40411377 17.54522705 C21.41726301 20.6553219 21.40859354 23.76490039 21.3984375 26.875 C21.40045969 29.04541115 21.40337234 31.21582164 21.40713501 33.38623047 C21.4115515 37.92877693 21.40514893 42.47114607 21.39111328 47.01367188 C21.37402197 52.82756668 21.38386675 58.64104596 21.40183067 64.45492554 C21.41268666 68.93484613 21.4092138 73.41466869 21.4014473 77.89459229 C21.39945032 80.03794403 21.40188687 82.18130475 21.40888596 84.324646 C21.41653018 87.3234403 21.40485429 90.32156768 21.38818359 93.3203125 C21.39425629 94.20052063 21.40032898 95.08072876 21.40658569 95.98760986 C21.35105813 101.39692037 20.61383564 105.22644263 18 110 C14.01075938 112.74814354 10.80573941 113.61349865 6 113 C1.36764706 110.73529412 1.36764706 110.73529412 0 108 C-0.70125 108.28875 -1.4025 108.5775 -2.125 108.875 C-14.72879018 113.8069179 -27.1620946 114.67737639 -40 110 C-52.18085552 103.92564197 -58.73605527 95.36497085 -64 83 C-64.89142364 80.02702188 -65.14004337 77.33713087 -65.17700195 74.23828125 C-65.18983719 73.29629883 -65.20267242 72.35431641 -65.21589661 71.38378906 C-65.22328354 70.37026367 -65.23067047 69.35673828 -65.23828125 68.3125 C-65.246353 67.25901367 -65.25442474 66.20552734 -65.26274109 65.12011719 C-65.27656884 62.88754921 -65.28729684 60.65496021 -65.29516602 58.42236328 C-65.30664978 56.15504701 -65.32704385 53.887757 -65.35668945 51.62060547 C-65.58410874 34.22239498 -65.38415163 20.47991129 -53 7 C-37.26546879 -6.83356165 -18.97534003 -7.93514219 0 0 Z M-39.5546875 25.8671875 C-43.20019646 31.2467764 -43.31976911 36.0903593 -43.3359375 42.39453125 C-43.3425943 43.30071701 -43.3492511 44.20690277 -43.35610962 45.14054871 C-43.36621438 47.05437192 -43.37092731 48.96823021 -43.37060547 50.88208008 C-43.3749699 53.79242846 -43.41128796 56.70124864 -43.44921875 59.61132812 C-43.45508932 61.47655735 -43.45905711 63.34179373 -43.4609375 65.20703125 C-43.47530853 66.06875443 -43.48967957 66.9304776 -43.50448608 67.8183136 C-43.45380045 74.60682876 -41.70250813 79.80388308 -37.2890625 85.0234375 C-31.50460503 89.72161187 -26.60401991 91.65551896 -19 91 C-12.46264097 89.29080499 -7.36921915 86.49330534 -3.75 80.625 C0.29514211 73.62889357 -0.81384609 64.74878848 -0.81469727 56.94262695 C-0.81251646 54.70439468 -0.79434335 52.46666058 -0.77539062 50.22851562 C-0.72876053 39.15217071 -0.69788342 30.26647884 -8.78515625 21.88671875 C-13.06437591 18.24145756 -16.99790612 17.21451006 -22.5 16.625 C-30.28572534 17.45918486 -34.4954956 19.8667506 -39.5546875 25.8671875 Z " fill="#FFFFFF" transform="translate(225,122)"/>
</svg>
