<?xml version="1.0" encoding="UTF-8"?>
<svg version="1.1" xmlns="http://www.w3.org/2000/svg" width="204" height="204">
<path d="M0 0 C-2.30302783 2.30302783 -4.71481153 3.30282348 -7.66186523 4.61303711 C-32.72199044 15.75714386 -51.13381939 35.42852386 -61.4609375 60.75390625 C-71.18335897 86.33640052 -69.34519378 114.13893602 -58.4609375 139.0078125 C-46.21453376 164.09001909 -25.58563242 181.41467599 0 192 C-6.9646267 198.9646267 -22.34147272 198.57755889 -31.59863281 198.60742188 C-33.16994751 198.59543651 -34.74124167 198.58041113 -36.3125 198.5625 C-37.52915344 198.55561157 -37.52915344 198.55561157 -38.77038574 198.54858398 C-51.08528588 198.45275763 -62.48498122 197.72504168 -74 193 C-74.71945801 192.71592285 -75.43891602 192.4318457 -76.18017578 192.13916016 C-102.4276737 181.53556181 -122.27713998 161.68984671 -134 136 C-139.19503703 123.36775802 -141.3830257 110.86951958 -141.3125 97.25 C-141.30686035 96.10547363 -141.3012207 94.96094727 -141.29541016 93.78173828 C-140.89255751 65.63390559 -128.79194994 41.11630649 -108.86010742 21.51318359 C-104.23402495 17.08893484 -99.51706996 13.27814822 -94 10 C-93.12746582 9.4747876 -93.12746582 9.4747876 -92.23730469 8.93896484 C-65.22581005 -7.07820997 -29.55510126 -12.66647197 0 0 Z " fill="#FFFFFF" transform="translate(173,6)"/>
</svg>
